<?xml version="1.0" encoding="utf-8"?>

<!DOCTYPE svg PUBLIC "-//W3C//DTD SVG 1.1//EN" "http://www.w3.org/Graphics/SVG/1.1/DTD/svg11.dtd">
<svg version="1.1" id="Layer_1" xmlns="http://www.w3.org/2000/svg" xmlns:xlink="http://www.w3.org/1999/xlink" x="0px" y="0px"
	 viewBox="0 0 1693.852 1693.852" enable-background="new 0 0 1693.852 1693.852" xml:space="preserve">
<g>
	<g>
		<g>
			<g>
				<path fill="#202020" d="M850.189,1544.75c33.467,4.288,67.445-0.842,70.61-1.568c6.359-3.454,13.401-7.71,21.636-7.611
					c26.826-2.821,28.525,2.651,34.716-2.713c0,0,32.145-8.701,56.031-16.452c69.392,0.607,150.043-23.545,186.823-80.619
					c0.608-1.483,2.388-3.702,2.328-3.886c2.864-0.156,4.231-2.152,5.662-3.431c3.968-5.99,86.365-47.223,94.371-58.816
					c7.096-10.541,9.022-22.588,15.559-31.218c0,0,14.592-16.41,22.493-26.665c58.306-74.794,37.304-48.309,54.126-82.285
					c2.072-4.43,32.459-52.164,49.692-90.628c16.586-12.86,23.004-41.878,40.672-69.038c10.573-17.173,9.16-13.655,24.298-46.342
					c0.697,0.208-5.048-3.577-2.743-1.817c-0.764,0.905-5.383,6.153-6.466,7.38c-2.523-1.16,3.139,1.947,2.602,1.435
					c13.151-96.754-3.467-57.478,22.802-129.736c5.087-15.539,5.835-7.707,0.849-49.999c-0.863-1.374,1.439-1.056-2.019-3.815
					c-3.335,0.003-2.097,0.002-5.436,0.007c-3.658,2.998-1.02,2.505-1.841,3.927c-0.015,4.367,0.043,19.967-0.741,34.953
					c-5.848,18.472-15.634,33.761-17.34,48.212c-0.712,5.792-1.001,12.031-3.906,15.747c-2.759,5.125,0.404,7.81,0.313,11.866
					c1.323,5.236-4.982,49.376-5.766,54.746c-2.787,19.85-1.193,19.327-23.056,53.372c-2.599,4.006-8.625,13.494-19.449,27.83
					c-8.727,14.294-15.49,32.403-24.793,50.754c-13.487,27.224-19.789,22.55-22.802,38.248c-1.91,9.758,0.058,5.798-14.01,36.582
					c-10.84,22.968-7.494,22.938-61.363,89.096c-16.761,20.38-13.214,13.036-20.473,27.724
					c-13.557,27.235-3.103,15.589-57.377,54.671c-17.553,14.544-37.704,11.558-49.918,26.621
					c-8.142,9.992-12.295,19.345-21.547,26.723c-53.211,42.764-47.1,29.671-59.806,35.666
					c-31.777,11.936-29.629,17.795-49.19,18.643c-44.237,2.046-17.855-12.618-101.169,14.685
					c-29.726,9.066-73.003,17.783-96.058,15.844c-6.479,5.082-13.851,3.544-22.095,2.815c-3.892-0.862-7.631,0.671-11.429,1.295
					c-10.162,2.128-5.335,1.18-6.563,5.983c0.389-1.516-0.872-4.281,0.867-4.776c11.961-2.471,13.829-3.18,17.119-2.442
					c8.248,0.769,15.695,2.282,22.15-2.77c14.065,1.208,51.55-2.159,90.596-13.935c84.144-25.424,44.159-16.928,100.932-16.028
					c24.815,0.41,22.538-6.458,55.138-18.625c6.975-3.275,10.46-1.222,16.917-4.872c59.292-33.756,56.47-53.606,72.565-65.066
					c44.944-18.194,17.246-2.103,61.104-32.416c26.644-18.573,26.507-17.91,28.236-20.969c26.375-49.238,5.569-15.413,38.41-56.772
					c53.818-68.442,40.034-51.809,56.971-85.511c11.26-24.776,9.844-22.262,11.821-31.883c2.94-14.718,5.04-6.144,21.412-35.178
					c10.439-19.316,18.091-42.396,29.41-57.333c8.119-10.661,17.942-26.11,19.292-28.204c19.345-30.078,17.332-28.691,21.215-54.631
					c3.135-21.575,5.413-43.734,5.411-44.345c-0.109-6.075-1.799-12.603-1.066-15.847c4.807-7.039,3.558-15.416,5.316-22.551
					c10.169-35.402,17.119-19.475,17.461-77.933c-5.202-1.4,8.626-1.712,3.807,0.294c1.956,16.865,1.338,10.811,2.993,29.285
					c1.52,16.512-14.919,38.401-17.651,60.738c-5.755,17.939-1.799,32.465-9.45,88.947c-0.662-0.074,5.316,2.516,2.911,1.265
					c1.213-1.371,2.736-3.092,6.504-7.385c2.414,1.606-2.979-2.556-2.526-1.944c-23.021,50.288-26.698,45.564-35.921,66.198
					c-14.568,32.353-19.5,40.647-29.356,49.079c-2.574,5.707-23.535,48.346-43.856,80.601c-6.479,9.416-10.389,21.678-14.841,31.392
					c-4.689,10.141-1.381,4.741-40.639,56.06c-38.702,50.172-15.946,11.767-38.584,57.976c-4.392,8.966-1.403,6.724-52.569,37.41
					c-35.256,21.13-40.646,20.816-44.045,26.363c-1.258,1.303-2.786,2.772-3.868,2.726c-3.524,1.648-3.185,3.47-4.452,5.135
					c-5.377,8.628,2.12,3.725-13.95,17.552c-57.965,49.812-53.108,36.602-80.491,49.13c-37.977,11.606-14.629,14.291-68.322,8.015
					c-8.238-1.161-10.042,2.635-36.605,10.448c-69.222,20.935-43.478,12.494-64.689,13.915c-1.89,0.11-15.069,1.146-17.584,1.75
					c-5.994,1.466-9.882,3.744-15.887,7.078C918.182,1543.447,885.576,1549.102,850.189,1544.75z"/>
			</g>
			<path fill="#202020" d="M867.335,1547.253c21.476-0.107,19.17-10.163,38.542-3.69
				C919.008,1541.353,929.748,1547.005,867.335,1547.253z"/>
			<path fill="#202020" d="M989.603,1534.046c-6.159-4.931-10.415-2.288-17.749-3.62c-10.774-0.631-11.118-0.028-4.735-1.68
				c12.112-3.209,5.951-2.957,19.251-5.963c11.296-2.797,18.907-6.169,5.81,5.222L989.603,1534.046z"/>
			<path fill="#202020" d="M1121.578,1503.016c-8.774-0.677-11.579,1.886-15.263,2.292c-5.767,0.51-8.661-2.431-16.256,3.684
				c-1.284,2.459-0.855,1.646-2.175,4.126C1109.719,1507.703,1112.763,1506.29,1121.578,1503.016z"/>
			<path fill="#202020" d="M1080.954,1505.344c-2.006,0.272-6.779-0.948-15.592-2.704c-6.988-1.415-3.953-0.969-13.07-1.868
				C1051.654,1504.518,1068.081,1507.043,1080.954,1505.344z"/>
			<path fill="#202020" d="M1337.704,1324.413c1.137-1.173,17.34-20.606,25.713-31.336c3.456-4.669,3.932-5.008,8.425-15.151
				l4.698-5.686c0.238,2.903-9.972,19.811-11.946,22.714c0,0-7.7,9.262-14.051,17.425c-4.879,6.341-3.752,5.446-8.641,8.966
				C1339.803,1322.879,1337.704,1324.413,1337.704,1324.413z"/>
			<path fill="#202020" d="M1522.269,958.549c1.709,12.231,1.508,7.53,0.878,20.615l-1.405-2.228
				c-1.582,24.188,2.306,8.212-1.804,33.778l0.428,7.093l1.668,0.754C1526.946,981.835,1527.338,974.777,1522.269,958.549z"/>
			<path fill="#202020" d="M1473.695,1096.737c1.541-3.027,0.869-1.661,3.187-6.51c-3.395,4.266-2.191,2.785-5.61,6.891l-0.906,3.01
				l3.77-0.506c19.119-28.953-3.948,3.16,36.066-56.167c-8.582,11.7-16.704,21.968-17.719,23.211
				C1483.507,1076.846,1483.746,1084.356,1473.695,1096.737z"/>
			<path fill="#202020" d="M849.277,1544.59c-1.525-1.605,2.259-0.714,5.148-1.026c12.251-1.328,4.674-1.188,19.535,3.241
				C867.515,1546.512,865.969,1546.62,849.277,1544.59z"/>
			<path fill="#202020" d="M1320.733,1364.769c-1.432-1.563-2.078-3.127-0.28-6.249c1.796-3.12,0.177-2.336,2.745-5.448
				c2.595-3.074,6.98-5.938,8.291-8.689c1.304-2.755,4.598-6.713,4.598-6.713c-0.567,1.944-4.18,14.356-5.214,17.66l-6.656,9.813
				L1320.733,1364.769z"/>
			<path fill="#202020" d="M1134.233,1487.427c22.629-1.346,18.215-0.723,29.905-6.531l-2.89-4.475l-8.322,2.404
				c-1.804,1.728-0.963,0.942-4.153,3.861C1135.987,1486.896,1135.441,1487.085,1134.233,1487.427z"/>
			<path fill="#202020" d="M1526.373,915.122c-0.108,1.441-0.223,2.311-0.636,5.923c2.916-2.629,3.986-3.583,5.336-4.855
				c-0.851,2.015-6.99,15.643-9.913,21.675c-0.147-5.161-0.075-3.362-0.342-8.412
				C1526.335,915.359,1525.659,917.096,1526.373,915.122z"/>
			<path fill="#202020" d="M1218.62,1421.161c-8.69,18.212-11.323,18.325-18.848,23.245c0,0,16.928-23.313,16.929-23.314
				L1218.62,1421.161z"/>
			<path fill="#202020" d="M1017.709,1508.27c-3.155,0.393-8.82-1.282-9.954-1.004c-1.137,0.275-8.479,3.246-10.716,4.043
				c-12.808,4.993-0.989,2.561-42.519,14.398l3.902-0.095c-8.065,3.026-5.243,2.004-13.188,4.76
				c16.268-4.356,37.182-10.812,54.299-16.948c2.411,0.264,1.252,0.153,5.789,0.54l4.661-4.19L1017.709,1508.27z"/>
			<path fill="#202020" d="M1420.613,1189.531l1.902-0.039c-2.628,18.08-7.801,24.227-8.92,25.927l-3.407,2.23
				C1410.189,1217.648,1420.613,1189.531,1420.613,1189.531z"/>
			<path fill="#202020" d="M1508.529,1034.699l3.228-4.49c4.128-18.149,4.755-61.337,1.434-32.352
				C1511.26,1016.277,1508.87,1020.868,1508.529,1034.699z"/>
			<path fill="#202020" d="M1539.201,858.116l2.851,4.938c0.099,1.771,0.077,0.984,0.333,9.457l-3.451-2.913
				C1539.153,863.812,1539.096,866.482,1539.201,858.116z"/>
			<path fill="#202020" d="M1120.146,1490.377c-3.109,7.217-8.438,7.06-18.047,9.802c6.429-3.731,7.177-4.435,11.183-8.013
				C1119.729,1490.517,1118.892,1490.731,1120.146,1490.377z"/>
			<path fill="#202020" d="M882.24,1535.861c-8.106,6.19-19.975-1.568-30.171,2.708l-3.06-0.211
				C877.601,1531.74,857.446,1538.196,882.24,1535.861z"/>
		</g>
		<g>
			<path fill="#202020" d="M1151.496,1480.391c18.905-23.858,26.003-80.462,26.212-111.155
				c3.364,32.425,1.519,89.598-15.905,111.688"/>
			<path fill="#202020" d="M894.48,1533.646c27.735-24.222,37.394-87.728,48.032-102.126c-8.837,15.39-12.406,80.816-38.058,104.639
				"/>
			<path fill="#202020" d="M992.558,1524.244c9.749,33.681,57.923,60.713,65.658,78.565c-8.624-14.183-62.405-39.355-71.663-70.64"
				/>
			<path fill="#202020" d="M1521.319,939.713c-10.904-17.467-47.771-32.212-54.658-40.403c8.079,7.617,46.429,18.614,57.385,35.259"
				/>
			<path fill="#202020" d="M1327.13,1331.897c9.065-18.497,8.04-53.567,4.474-73.891c6.936,19.271,11.648,49.403,3.434,68.13"/>
			<path fill="#202020" d="M1409.524,1243.851c10.187-3.96,33.038-5.007,44.007-4.939c-11.355-3.013-36.308-7.934-47.495-3.808"/>
			<path fill="#202020" d="M1225.997,1423.599c23.503-0.502,63.411,8.066,86.23,13.532c-18.051-8.441-50.547-18.929-74.201-18.024"
				/>
			<path fill="#202020" d="M1478.358,1109.99c18.085-19.153,95.428-31.492,115.308-54c-18.458,25.868-93.876,44.103-113.123,63.833"
				/>
			<path fill="#202020" d="M1094.665,1509.322c11.574,1.171,33.647,13.887,43.532,20.019c-8.702-7.61-27.092-21.49-39.046-22.952"/>
			<path fill="#202020" d="M1438.976,1158.685c-10.55-9.06-23.802-34.356-49.729-82.308c20.792,49.575,33.954,77.744,43.576,86.436"
				/>
			<path fill="#202020" d="M902.182,1531.558c3.025,7.026,3.948,5.576,15.461,3.064c6.26-1.585,12.319-3.475,18.698-5.999
				C905.647,1535.327,911.946,1534.915,902.182,1531.558z"/>
			<path fill="#202020" d="M1541.08,890.686c0.852,2.864-2.546,9.63-8.131,8.125C1534.673,896.414,1534.803,895.666,1541.08,890.686
				z"/>
			<path fill="#202020" d="M1464.034,1129.925c0.402-1.031,6.799-20.199,22.623-44.248l-3.782,12.358
				C1486.968,1115.876,1487.436,1116.416,1464.034,1129.925z"/>
			<path fill="#202020" d="M1437.603,1164.504c6.97-9.596,5.593-7.346,14.157-25.776c-8.87,11.979-6.436,9.018-14.664,18.358
				l-3.349,0.766C1432.191,1164.677,1436.837,1170.869,1437.603,1164.504z"/>
			<path fill="#202020" d="M1390.801,1265.954c-12.541,10.292-17.384,23.284-19.604,28.282
				c9.151-10.517,16.294-19.097,19.748-23.473L1390.801,1265.954z"/>
			<path fill="#202020" d="M1413.708,1239.05c-8.88,9.922-12.742,5.201-16.579,12.024c-1.817,3.226,1.152-6,3.036-8.582
				c1.533-2.025,5.131-8.994,6.285-11.258L1413.708,1239.05z"/>
			<path fill="#202020" d="M1258.083,1401.016c8.778-3.4,5.124,1.077,19.725-7.241c2.017-1.137,3.617-2.146,4.396-3.052
				c1.56-1.816,3.838-6.435,1.286-4.38C1277.979,1390.781,1276.644,1392.378,1258.083,1401.016z"/>
		</g>
		<g>
			<g>
				<path fill="#595959" d="M1562.113,850.269c4.416,36.814-1.599,70.567-1.964,72.162c-3.436,6.319-7.876,13.875-7.836,22.316
					c-3.014,27.323,2.191,29.307-2.83,35.132c0,0-12.561,46.327-21.312,68.952c-3.642,9.231-1.627,9.795,0.421,35.379
					c3.142,12.039-1.521,22.801-6.559,34.745c-17.019,39.992-6.172,40.343-62.456,103.235c-2.876,3.309-12.493,4.233-15.134,9.833
					c0.033,1.101-1.464,2.672-2.792,3.968c-3.945,2.469-5.17,6.144-14.36,23.16c-19.059,33.418-9.976,16.697-35.678,59.342
					c-7.817,12.409-5.762,12.442-26.189,21.078c-14.887,6.165-14.151,6.586-29.835,20.117c-8.626,7.012-61.696,50.48-81.383,59.048
					c-32.318,14.218-68.073,39.276-109.445,57.961c-13.057,14.975-29.247,19.215-55.83,32.48
					c-14.197,6.823-13.959,11.927-62.558,33.922c-0.623-0.451,3.603,4.926,1.974,2.518c4.268-3.672,5.834-5.031,7.598-6.56
					c1.264,2.402-1.348-3.57-1.277-2.908c-20.702,2.872-39.498,4.664-55.418,5.521c-51.103,2.596-60.907,13.339-81.237,19.249
					c-11.84,3.582-2.689,4.918-46.767-0.056c-2.055,4.819-1.735-9.01-0.301-3.807c36.556-0.221,35.434,0.367,53.099-7.097
					c24.226-10.379,25.945-10.611,32.633-11.397c5.884-0.697,11.844-0.833,17.307-4.486c4.603-1.031,14.668,2.395,22.081,0.278
					c60.253-6.018,72.34-7.007,129.328-49.615c27.441-16.275,56.494-22.903,80.233-44.833c6.106-4.151,14.457-3.764,21.455-6.595
					c51.876-22.292,55.383-24.105,117.955-75.471c21.443-17.789,12.914-13.276,27.961-20.931
					c27.988-14.218,17.052-4.668,56.393-59.498c14.87-18.273,12.495-39.023,27.067-50.917c7.528-6.11,13.332-9.447,18.847-14.044
					c11.437-9.531,40.321-49.863,42.034-58.534c1.508-10.35,7.634-24.443,12.037-33.875c10.717-14.221,10.595-29.152,9.461-45.925
					c-2.459-28.803-2.659-29.127,10.217-69.056c0.296-1,24.785-72.284,21.226-115.474c5.063-6.625,3.551-14.333,2.795-22.704
					c-0.871-3.99,0.653-7.79,1.269-11.7c2.102-10.417,1.187-5.479,5.955-6.731c-1.522,0.398-4.268-0.918-4.789,0.887
					c-2.503,12.237-3.219,14.188-2.495,17.55c0.729,8.506,2.255,15.997-2.839,22.648c3.695,45.833-22.391,115.76-28.024,138.046
					c-10.695,22.606-0.684,46.804-4.16,69.891c-2.485,15.902-6.503,14.985-14.107,33.36c-11.284,27.086,0.093,21.262-40.858,72.6
					c-4.886,6.172-11.309,10.768-17.808,15.233c-21.265,14.762-17.11,16.128-25.598,37.435
					c-7.613,19.221-7.799,14.381-35.509,54.718c-10.448,14.978-5.815,11.246-26.401,22.173
					c-19.128,9.951-11.204,4.466-29.026,19.966c-65.125,53.747-69.932,56.38-122.264,78.684c-6.675,2.828-14.51,1.898-22.129,6.97
					c-20.747,19.222-47.332,26.954-70.012,38.916c-19.841,10.128-8.768,7.571-58.866,37.463c-23.02,12.99-14.277,6.515-32.73,11.034
					c-5.344,0.939-52.776,7.669-58.13,6.369c-4.157,0.108-6.897-3.045-12.162-0.265c-5.079,3.883-15.171,3.274-21.891,4.827
					c-39.597,11.146-19.633,17.144-79.544,17.358c-1.458,0.82-0.952-1.818-4.024,1.841c-0.005,3.333-0.003,2.099-0.007,5.437
					c2.827,3.458,2.5,1.156,3.908,2.019c41.625,4.778,36.088,4.496,54.078-1.917c67.172-24.656,47.792-10.864,130.106-22.338
					c0.52,0.536-2.624-5.117-1.453-2.597c-1.29,1.116-6.625,5.72-7.593,6.522c-1.786-2.298,2.052,3.433,1.844,2.736
					c64.881-29.723,21.256-14.06,89.469-46.284c10.548-5.06,22.028-10.99,29.007-19.807c43.697-19.605,84.195-47.713,103.592-55.769
					c38.359-15.946,95.158-71.258,105.61-77.05c29.629-16.419,21.25,5.712,69.369-79.268c14.772-26.19,13.446-27.16,18.121-30.317
					c1.305-1.471,3.331-2.884,3.521-5.801c0.184,0.059,2.44-1.777,3.94-2.414c3.382-2.224,6.93-2.348,10.516-5.802
					c15.694-17.728,72.437-67.246,72.175-185.683c8.582-26.559,16.783-57.457,16.783-57.457c4.881-5.755,1.027-11.366,1.813-23.602
					c0.113-2.047,1.131-15.449,1.709-17.949c1.439-6.075,3.585-9.775,7.008-16.208
					C1561.166,919.448,1566.598,886.16,1562.113,850.269z"/>
			</g>
			<path fill="#595959" d="M1564.609,867.832c-0.122,22.08-10.191,19.615-3.744,39.49
				C1558.598,920.958,1564.321,931.484,1564.609,867.832z"/>
			<path fill="#595959" d="M1551.051,993.116c-4.908-6.283-2.227-10.581-3.54-18.16c-0.586-11.015,0.025-11.412-1.661-4.843
				c-3.274,12.462-2.974,6.075-6.057,19.748c-2.868,11.634-6.257,19.377,5.198,5.924L1551.051,993.116z"/>
			<path fill="#595959" d="M1519.03,1128.289c-0.604-8.968,1.991-11.827,2.431-15.606c0.56-5.888-2.365-8.826,3.83-16.637
				c2.528-1.359,1.583-0.846,4.155-2.255C1523.85,1116.099,1522.39,1119.264,1519.03,1128.289z"/>
			<path fill="#595959" d="M1521.705,1086.77c0.287-2.039-0.869-6.774-2.59-15.922c-1.367-7.141-0.942-4.047-1.775-13.357
				C1521.112,1056.808,1523.506,1073.632,1521.705,1086.77z"/>
			<path fill="#595959" d="M1336.522,1350.149c-1.301,1.261-21.058,17.771-32.088,26.403c-4.759,3.538-5.138,4.044-15.481,8.703
				l-5.831,4.816C1287.031,1390.343,1321.34,1370.742,1336.522,1350.149z"/>
			<path fill="#595959" d="M961.36,1539.403c12.525,1.658,7.71,1.478,21.118,0.788l-2.275-1.396
				c25.121-1.719,8.145,2.321,34.603-1.983l7.259,0.387l0.763,1.666C985.383,1543.972,977.997,1544.418,961.36,1539.403z"/>
			<path fill="#595959" d="M1103.171,1489.823c-3.099,1.569-1.711,0.889-6.685,3.255c4.385-3.439,2.877-2.231,7.095-5.691
				l3.087-0.937l-0.552,3.788c-29.873,19.515,3.831-4.283-57.735,36.613c12.019-8.672,22.589-16.896,23.879-17.931
				C1082.751,1499.834,1090.43,1500.014,1103.171,1489.823z"/>
			<path fill="#595959" d="M1561.953,849.335c-1.597-1.554-0.717,2.338-1.027,5.274c-1.333,12.571-1.182,4.802,3.23,20.01
				C1563.873,868.138,1563.994,866.544,1561.953,849.335z"/>
			<path fill="#595959" d="M1377.576,1332.457c-1.563-1.432-3.137-2.068-6.316-0.207c-3.177,1.858-2.365,0.209-5.545,2.849
				c-3.142,2.667-6.095,7.144-8.895,8.506c-2.804,1.355-6.852,4.739-6.852,4.739c2.079-0.63,14.532-4.394,17.937-5.499l10.007-6.863
				L1377.576,1332.457z"/>
			<path fill="#595959" d="M1503.266,1141.349c-1.563,23.11-0.905,18.608-6.848,30.571l-4.469-2.903l2.498-8.511
				c1.751-1.853,0.994-1.033,3.919-4.274C1502.758,1143.019,1502.919,1142.557,1503.266,1141.349z"/>
			<path fill="#595959" d="M916.835,1543.652c1.475-0.111,2.366-0.228,6.073-0.651c-2.692,2.912-3.681,3.994-4.99,5.35
				c1.851-0.767,15.727-6.881,22.246-9.98c-5.29-0.13-3.447-0.064-8.622-0.315C917.099,1543.606,918.876,1542.927,916.835,1543.652z
				"/>
			<path fill="#595959" d="M1435.728,1228.069c18.445-9.055,18.582-11.729,23.62-19.453c-0.001,0-23.667,17.501-23.668,17.502
				L1435.728,1228.069z"/>
			<path fill="#595959" d="M1525.084,1022.038c0.413-3.232-1.23-9.025-0.945-10.188c0.282-1.167,3.299-8.704,4.11-11
				c5.057-13.115,2.638-1.183,14.611-43.633l-0.11,3.997c3.057-8.271,2.025-5.378,4.813-13.531
				c-4.449,16.805-10.955,38.09-17.208,55.708c0.249,2.458,0.135,1.129,0.508,5.926l-4.223,4.798L1525.084,1022.038z"/>
			<path fill="#595959" d="M1198.448,1435.512l-0.061,1.915c18.446-2.85,24.791-8.152,26.511-9.284l2.311-3.46
				C1226.776,1424.846,1198.927,1435.345,1198.448,1435.512z"/>
			<path fill="#595959" d="M1039.431,1525.235l-4.617,3.263c-18.665,4.265-62.81,5.107-33.136,1.631
				C1020.496,1528.102,1025.31,1525.666,1039.431,1525.235z"/>
			<path fill="#595959" d="M858.391,1556.563l5.058,2.849c1.826,0.098,1.006,0.076,9.689,0.326l-2.982-3.449
				C864.261,1556.511,866.874,1556.454,858.391,1556.563z"/>
			<path fill="#595959" d="M1506.356,1126.94c7.278-3.246,7.165-8.685,9.994-18.518c-3.766,6.544-4.495,7.351-8.137,11.493
				C1506.504,1126.501,1506.735,1125.612,1506.356,1126.94z"/>
			<path fill="#595959" d="M1553.203,883.115c6.176-8.284-1.537-20.496,2.729-30.92l-0.21-3.134
				C1549.095,878.375,1555.566,857.719,1553.203,883.115z"/>
		</g>
		<g>
			<path fill="#595959" d="M1555.151,951.473c11.462-17.813,70.414-63.699,91.775-80.535c-22.451,13.667-81.74,50.462-95.524,70.796
				"/>
			<path fill="#595959" d="M869.944,1563.669c27.969,5.147,78.457,42.813,99.675,44.505c-19.31-3.414-63.73-45.078-92.049-50.498"/>
			<path fill="#595959" d="M1010.273,1528.074c33.388-16.372,53.651-66.803,67.987-77.54
				c-13.613,12.869-27.307,65.062-58.587,81.161"/>
			<path fill="#595959" d="M1196.213,1458.131c8.043-20.457-3.063-56.511-0.266-68.594c-1.392,13.057,13.234,47.895,6.133,67.469"/>
			<path fill="#595959" d="M1390.586,1298.625c7.615-19.522,3.901-54.991-1.408-75.65c8.52,18.792,15.744,48.934,8.935,68.885"/>
			<path fill="#595959" d="M1131.202,1474.5c2.64-10.796,14.721-29.589,20.903-38.809c-8.765,8.357-27.206,25.94-30.513,37.612"/>
			<path fill="#595959" d="M1425.417,1262.16c22.514-9.206,63.176-16.606,86.382-19.747c-20.922-1.373-54.836,1.419-76.541,10.919"
				/>
			<path fill="#595959" d="M1147.498,1478.085c29.213-1.979,91.207,39.506,123.488,35.877
				c-32.935,7.119-101.136-29.645-128.59-27.028"/>
			<path fill="#595959" d="M1552.827,899.312c-13.186-6.312-34.643-30.547-43.955-41.845c7.399,12.805,23.582,36.685,36.882,43.242"
				/>
			<path fill="#595959" d="M1515.725,1120.019c-11.858-8.633-29.036-37.474-55.996-81.312
				c12.209,25.166,36.591,76.135,50.074,86.504"/>
			<path fill="#595959" d="M903.56,1548.866c3.097,7.045,4.119,5.553,15.839,3.03c7.169-1.789,13.508-3.851,19.179-6.055
				C907.065,1552.652,913.522,1552.191,903.56,1548.866z"/>
			<path fill="#595959" d="M1558.41,891.762c0.848,2.931-2.56,9.872-8.146,8.34C1551.993,897.642,1552.125,896.875,1558.41,891.762z
				"/>
			<path fill="#595959" d="M1120.292,1483.518c1.298-0.67,15.667-9.331,47.36-18.128c-4.432,2.726-1.839,1.185-11.344,6.717
				C1146.833,1489.06,1146.665,1488.491,1120.292,1483.518z"/>
			<path fill="#595959" d="M1551.974,950.587c3.329-11.849,2.906-9.763,4.731-30.893c-4.248,14.827-3.426,12.49-7.668,23.706
				l-2.91,2.006C1546.885,952.632,1553.378,957.291,1551.974,950.587z"/>
			<path fill="#595959" d="M1407.297,1278.683c-12.735,10.589-17.837,23.753-20.256,29.085c9.417-10.829,16.75-19.648,20.331-24.187
				L1407.297,1278.683z"/>
			<path fill="#595959" d="M1427.978,1248.941c-9.028,10.149-12.916,5.45-16.864,12.423c-1.873,3.301,1.235-6.113,3.166-8.761
				c1.573-2.081,5.282-9.206,6.473-11.525L1427.978,1248.941z"/>
			<path fill="#595959" d="M1252.404,1410.643c6.497-2.455,7.791-0.712,12.878-3.348c5.008-2.743,9.931-4.878,11.541-6.659
				c1.804-2.01,3.881-6.358,1.388-4.35C1269.588,1402.923,1268.454,1403.193,1252.404,1410.643z"/>
		</g>
	</g>
	<g>
		<g>
			<g>
				<path fill="#202020" d="M149.102,850.189c-4.292,33.501,0.844,67.455,1.569,70.61c3.465,6.378,7.71,13.406,7.611,21.636
					c2.791,26.542-2.568,28.621,2.713,34.716c0,0,8.705,32.156,16.451,56.031c-0.606,69.387,23.549,150.045,80.619,186.823
					c1.483,0.608,3.702,2.388,3.886,2.328c0.156,2.864,2.152,4.231,3.431,5.662c6,3.975,47.203,86.351,58.816,94.371
					c10.538,7.094,22.589,9.023,31.218,15.559c0,0,16.419,14.599,26.665,22.493c74.781,58.296,48.292,37.295,82.285,54.126
					c4.43,2.072,52.164,32.459,90.628,49.692c12.86,16.586,41.878,23.004,69.039,40.672c17.191,10.584,14.068,9.351,46.342,24.298
					c-0.208,0.697,3.577-5.048,1.817-2.743c-0.923-0.78-6.123-5.356-7.38-6.466c1.16-2.523-1.947,3.139-1.435,2.601
					c99.067,13.494,56.682-3.756,129.736,22.802c15.503,5.071,7.588,5.849,49.999,0.849c1.374-0.863,1.056,1.439,3.815-2.019
					c-0.004-3.336-0.002-2.098-0.007-5.437c-2.998-3.658-2.505-1.02-3.927-1.84c-3.142-0.01-19.299,0.079-34.953-0.741
					c-18.598-5.887-33.705-15.628-48.212-17.34c-5.792-0.712-12.031-1.001-15.747-3.906c-5.125-2.759-7.81,0.404-11.866,0.313
					c-5.241,1.324-49.388-4.984-54.746-5.766c-19.85-2.787-19.327-1.193-53.372-23.056c-4.083-2.649-13.558-8.672-27.83-19.449
					c-14.294-8.726-32.403-15.49-50.754-24.793c-27.207-13.478-22.568-19.793-38.248-22.802c-9.763-1.911-5.79,0.061-36.582-14.01
					c-22.537-10.636-22.534-7.166-89.096-61.363c-20.369-16.752-13.03-13.212-27.724-20.473
					c-27.27-13.575-15.586-3.098-54.671-57.377c-14.544-17.553-11.56-37.706-26.621-49.918c-9.99-8.141-19.345-12.295-26.723-21.547
					c-42.764-53.211-29.671-47.1-35.666-59.806c-11.949-31.813-17.793-29.59-18.643-49.19
					c-2.031-43.912,12.528-18.13-14.685-101.169c-9.159-30.031-17.766-73.204-15.844-96.058c-5.082-6.479-3.544-13.853-2.815-22.095
					c0.862-3.892-0.671-7.631-1.295-11.429c-2.128-10.162-1.18-5.335-5.982-6.563c1.516,0.389,4.281-0.872,4.776,0.867
					c2.471,11.961,3.18,13.829,2.442,17.119c-0.771,8.263-2.281,15.696,2.77,22.15c-1.208,14.065,2.16,51.55,13.935,90.596
					c25.42,84.127,16.927,44.232,16.028,100.932c-0.409,24.804,6.494,22.636,18.624,55.138c3.275,6.975,1.222,10.46,4.872,16.917
					c33.517,58.87,53.8,56.743,65.066,72.565c18.182,44.915,2.103,17.245,32.416,61.104c18.584,26.66,17.912,26.508,20.969,28.236
					c49.23,26.371,15.431,5.583,56.772,38.41c68.459,53.831,51.814,40.037,85.511,56.971c24.765,11.255,22.26,9.843,31.883,11.821
					c14.718,2.94,6.138,5.035,35.178,21.412c19.33,10.445,42.4,18.093,57.333,29.41c10.639,8.102,26.059,17.909,28.204,19.292
					c30.103,19.361,28.713,17.335,54.631,21.216c21.58,3.136,43.736,5.413,44.345,5.411c6.075-0.109,12.603-1.799,15.847-1.066
					c7.047,4.812,15.397,3.553,22.551,5.316c35.324,10.145,19.526,17.12,77.934,17.461c1.4-5.202,1.712,8.626-0.294,3.807
					c-16.928,1.963-10.748,1.331-29.285,2.994c-16.53,1.52-38.359-14.913-60.738-17.651c-17.927-5.751-32.501-1.803-88.947-9.449
					c0.074-0.662-2.516,5.316-1.265,2.911c1.301,1.151,3.144,2.781,7.385,6.504c-1.606,2.414,2.556-2.979,1.944-2.526
					c-50.177-22.965-45.576-26.703-66.198-35.921c-32.034-14.425-40.569-19.409-49.079-29.356
					c-5.756-2.596-48.362-23.545-80.601-43.856c-9.45-6.502-21.573-10.341-31.392-14.841c-10.043-4.644-4.544-1.23-56.06-40.639
					c-50.445-38.912-11.597-15.861-57.976-38.584c-8.997-4.407-6.76-1.464-37.41-52.569c-21.131-35.26-20.819-40.648-26.363-44.045
					c-1.303-1.258-2.772-2.786-2.727-3.868c-1.648-3.524-3.47-3.185-5.135-4.452c-8.592-5.355-3.711,2.136-17.552-13.951
					c-49.81-57.965-36.609-53.123-49.13-80.491c-11.625-38.038-14.293-14.617-8.015-68.322c1.162-8.24-2.635-10.041-10.448-36.605
					c-20.936-69.222-12.494-43.478-13.915-64.689c-0.111-1.889-1.146-15.069-1.75-17.584c-1.468-6.002-3.766-9.921-7.078-15.887
					C150.405,918.182,144.75,885.576,149.102,850.189z"/>
			</g>
			<path fill="#202020" d="M146.599,867.335c0.106,21.476,10.163,19.17,3.69,38.542
				C152.499,919.008,146.846,929.748,146.599,867.335z"/>
			<path fill="#202020" d="M159.806,989.603c4.936-6.163,2.285-10.403,3.62-17.749c0.631-10.766,0.026-11.128,1.68-4.735
				c3.222,12.159,2.954,5.939,5.963,19.251c2.796,11.296,6.169,18.907-5.222,5.81L159.806,989.603z"/>
			<path fill="#202020" d="M190.836,1121.578c0.677-8.774-1.886-11.582-2.292-15.263c-0.51-5.767,2.431-8.66-3.684-16.256
				c-2.463-1.286-1.62-0.841-4.126-2.175C186.093,1109.491,187.448,1112.454,190.836,1121.578z"/>
			<path fill="#202020" d="M188.508,1080.954c-0.271-1.994,0.924-6.657,2.704-15.592c1.415-6.988,0.969-3.956,1.868-13.07
				C189.334,1051.653,186.809,1068.081,188.508,1080.954z"/>
			<path fill="#202020" d="M369.439,1337.704c1.172,1.136,20.621,17.351,31.336,25.713c4.621,3.421,4.974,3.917,15.151,8.425
				l5.686,4.698c-2.903,0.238-19.812-9.973-22.714-11.946c0,0-9.266-7.703-17.425-14.051c-6.341-4.879-5.446-3.752-8.966-8.641
				C370.973,1339.803,369.439,1337.704,369.439,1337.704z"/>
			<path fill="#202020" d="M735.303,1522.269c-12.231,1.709-7.53,1.508-20.615,0.878l2.228-1.405
				c-24.189-1.582-8.211,2.305-33.778-1.804l-7.093,0.428l-0.754,1.668C712.017,1526.946,719.075,1527.338,735.303,1522.269z"/>
			<path fill="#202020" d="M597.116,1473.695c3.021,1.538,1.66,0.868,6.51,3.187c-4.268-3.396-2.782-2.189-6.89-5.61l-3.01-0.906
				l0.506,3.77c28.938,19.109-3.131-3.926,56.167,36.066c-11.747-8.615-22.061-16.779-23.211-17.719
				C616.984,1483.488,609.514,1483.762,597.116,1473.695z"/>
			<path fill="#202020" d="M149.262,849.277c1.606-1.526,0.714,2.257,1.027,5.148c1.327,12.25,1.186,4.679-3.241,19.535
				C147.341,867.515,147.232,865.969,149.262,849.277z"/>
			<path fill="#202020" d="M329.083,1320.733c1.563-1.432,3.127-2.078,6.249-0.28c3.12,1.796,2.336,0.177,5.448,2.745
				c3.074,2.595,5.938,6.979,8.689,8.291c2.754,1.304,6.713,4.598,6.713,4.598c-1.968-0.574-14.356-4.18-17.66-5.214l-9.813-6.656
				L329.083,1320.733z"/>
			<path fill="#202020" d="M206.425,1134.233c1.345,22.629,0.723,18.215,6.531,29.905l4.475-2.89l-2.404-8.322
				c-1.736-1.812-0.964-0.987-3.861-4.153C206.959,1135.994,206.766,1135.437,206.425,1134.233z"/>
			<path fill="#202020" d="M778.73,1526.373c-1.432-0.107-2.303-0.221-5.923-0.636c2.775,3.078,3.61,4.015,4.855,5.336
				c-1.993-0.841-15.607-6.973-21.675-9.913c5.157-0.147,3.369-0.076,8.412-0.342
				C778.499,1526.336,776.738,1525.653,778.73,1526.373z"/>
			<path fill="#202020" d="M272.691,1218.62c-18.212-8.69-18.325-11.323-23.245-18.848c0,0,23.313,16.928,23.314,16.929
				L272.691,1218.62z"/>
			<path fill="#202020" d="M185.583,1017.708c-0.393-3.155,1.282-8.82,1.004-9.953c-0.275-1.137-3.246-8.479-4.043-10.716
				c-5.068-13-2.553-0.962-14.398-42.519l0.095,3.902c-3.023-8.058-2.004-5.243-4.761-13.188
				c4.355,16.265,10.812,37.182,16.948,54.299c-0.265,2.425-0.149,1.207-0.54,5.789l4.19,4.661L185.583,1017.708z"/>
			<path fill="#202020" d="M504.322,1420.613l0.039,1.902c-18.08-2.628-24.227-7.8-25.927-8.92l-2.23-3.407
				C476.204,1410.189,504.321,1420.613,504.322,1420.613z"/>
			<path fill="#202020" d="M659.154,1508.529l4.49,3.228c18.155,4.13,61.325,4.753,32.352,1.435
				C677.567,1511.26,672.99,1508.87,659.154,1508.529z"/>
			<path fill="#202020" d="M835.736,1539.201l-4.938,2.851c-1.783,0.099-0.987,0.076-9.457,0.333l2.913-3.451
				C829.982,1539.153,827.495,1539.097,835.736,1539.201z"/>
			<path fill="#202020" d="M203.475,1120.146c-7.214-3.108-7.058-8.43-9.802-18.047c3.731,6.429,4.435,7.177,8.013,11.183
				C203.334,1119.724,203.112,1118.858,203.475,1120.146z"/>
			<path fill="#202020" d="M157.991,882.24c-6.178-8.09,1.568-19.975-2.707-30.171l0.211-3.06
				C162.111,877.597,155.657,857.45,157.991,882.24z"/>
		</g>
		<g>
			<path fill="#202020" d="M213.461,1151.496c23.858,18.905,80.462,26.003,111.155,26.212
				c-32.513,3.373-89.625,1.498-111.688-15.905"/>
			<path fill="#202020" d="M160.206,894.48c24.223,27.734,87.728,37.394,102.126,48.033c-15.373-8.827-80.842-12.434-104.639-38.059
				"/>
			<path fill="#202020" d="M169.608,992.558c-33.679,9.748-60.713,57.922-78.565,65.658c14.183-8.624,39.355-62.405,70.64-71.663"/>
			<path fill="#202020" d="M754.139,1521.319c17.467-10.904,32.212-47.771,40.403-54.658c-7.617,8.079-18.614,46.429-35.259,57.386"
				/>
			<path fill="#202020" d="M361.955,1327.13c18.497,9.066,53.572,8.039,73.891,4.474c-19.284,6.941-49.409,11.645-68.13,3.434"/>
			<path fill="#202020" d="M450.001,1409.524c3.96,10.187,5.007,33.04,4.939,44.007c3.015-11.363,7.933-36.311,3.808-47.495"/>
			<path fill="#202020" d="M270.253,1225.997c0.501,23.453-8.034,63.28-13.532,86.23c8.254-17.652,18.935-50.395,18.024-74.201"/>
			<path fill="#202020" d="M583.862,1478.358c19.121,18.055,31.532,95.459,54,115.308c-25.89-18.479-44.083-93.856-63.833-113.123"
				/>
			<path fill="#202020" d="M184.53,1094.665c-1.171,11.574-13.889,33.65-20.019,43.532c7.61-8.702,21.49-27.092,22.952-39.046"/>
			<path fill="#202020" d="M535.168,1438.976c9.055-10.544,34.316-23.78,82.308-49.729c-49.575,20.793-77.744,33.954-86.436,43.576"
				/>
			<path fill="#202020" d="M162.294,902.182c-7.026,3.025-5.575,3.955-3.064,15.461c1.576,6.222,3.459,12.277,5.999,18.698
				C158.526,905.647,158.937,911.945,162.294,902.182z"/>
			<path fill="#202020" d="M803.166,1541.08c-2.859,0.851-9.631-2.541-8.125-8.131
				C797.438,1534.673,798.187,1534.804,803.166,1541.08z"/>
			<path fill="#202020" d="M563.928,1464.034c1.031,0.402,20.199,6.799,44.248,22.623l-12.358-3.782
				C577.976,1486.968,577.436,1487.435,563.928,1464.034z"/>
			<path fill="#202020" d="M529.348,1437.603c9.601,6.974,7.355,5.597,25.776,14.157c-11.988-8.877-9.028-6.445-18.358-14.664
				l-0.766-3.349C529.176,1432.191,522.983,1436.837,529.348,1437.603z"/>
			<path fill="#202020" d="M427.898,1390.801c-10.292-12.541-23.284-17.384-28.282-19.604c10.517,9.151,19.097,16.294,23.473,19.748
				L427.898,1390.801z"/>
			<path fill="#202020" d="M454.802,1413.708c-9.921-8.879-5.201-12.741-12.024-16.579c-3.226-1.817,6,1.152,8.582,3.036
				c2.024,1.532,8.992,5.13,11.258,6.285L454.802,1413.708z"/>
			<path fill="#202020" d="M292.836,1258.083c3.4,8.777-1.076,5.123,7.241,19.725c1.137,2.017,2.147,3.617,3.052,4.396
				c1.816,1.56,6.435,3.838,4.38,1.286C303.072,1277.981,301.477,1276.648,292.836,1258.083z"/>
		</g>
		<g>
			<g>
				<path fill="#595959" d="M843.583,1562.113c-36.923,4.428-70.7-1.629-72.162-1.964c-6.281-3.415-13.861-7.877-22.316-7.836
					c-27.35-3.017-29.299,2.198-35.132-2.83c0,0-46.331-12.562-68.952-21.312c-9.249-3.649-9.867-1.619-35.38,0.421
					c-12.039,3.142-22.8-1.52-34.745-6.559c-40.238-17.125-40.246-6.074-103.235-62.456c-3.31-2.877-4.234-12.494-9.833-15.134
					c-1.101,0.033-2.672-1.464-3.968-2.792c-2.469-3.945-6.143-5.169-23.16-14.36c-33.465-19.086-16.582-9.906-59.342-35.678
					c-12.409-7.817-12.442-5.762-21.078-26.189c-6.166-14.888-6.586-14.151-20.117-29.835c-7.099-8.734-50.48-61.696-59.048-81.383
					c-14.254-32.398-39.286-68.097-57.961-109.445c-14.981-13.062-19.23-29.277-32.48-55.83
					c-6.824-14.199-11.977-14.067-33.922-62.558c0.451-0.624-4.926,3.603-2.518,1.974c3.428,3.986,5.398,6.257,6.56,7.598
					c-2.402,1.264,3.57-1.348,2.908-1.277c-2.874-20.739-4.662-39.464-5.521-55.418c-2.596-51.108-13.339-60.906-19.249-81.237
					c-3.579-11.83-4.918-2.693,0.056-46.767c-4.82-2.055,9.01-1.735,3.806-0.301c0.22,36.509-0.378,35.41,7.097,53.1
					c10.203,23.817,10.591,25.784,11.397,32.633c0.697,5.878,0.832,11.843,4.486,17.307c1.026,4.578-2.388,14.692-0.278,22.081
					c6.025,60.342,7.111,72.479,49.615,129.328c16.273,27.439,22.907,56.498,44.833,80.233c4.152,6.106,3.764,14.457,6.595,21.456
					c22.294,51.88,24.092,55.367,75.471,117.955c17.785,21.438,13.285,12.931,20.931,27.961
					c14.211,27.976,4.559,16.973,59.498,56.393c18.273,14.87,39.023,12.495,50.917,27.067c6.142,7.568,9.44,13.324,14.044,18.847
					c9.478,11.374,49.826,40.313,58.534,42.034c10.347,1.508,24.431,7.629,33.875,12.037c14.1,10.626,28.868,10.614,45.925,9.461
					c28.805-2.46,29.131-2.657,69.056,10.216c1,0.296,72.26,24.787,115.474,21.226c6.624,5.063,14.327,3.551,22.704,2.795
					c3.99-0.871,7.79,0.653,11.7,1.27c10.417,2.102,5.479,1.188,6.731,5.955c-0.398-1.523,0.918-4.268-0.887-4.789
					c-12.246-2.505-14.192-3.218-17.55-2.494c-8.496,0.728-15.994,2.257-22.648-2.839c-46.014,3.71-115.41-22.301-138.046-28.024
					c-22.607-10.694-46.806-0.685-69.891-4.16c-15.894-2.485-14.994-6.507-33.36-14.108c-27.086-11.284-21.262,0.094-72.6-40.858
					c-6.172-4.886-10.768-11.309-15.233-17.808c-14.816-21.341-16.44-17.235-37.435-25.598
					c-19.222-7.613-14.379-7.798-54.718-35.509c-14.978-10.447-11.247-5.816-22.173-26.401
					c-9.953-19.131-4.465-11.203-19.966-29.026c-53.75-65.129-56.378-69.929-78.684-122.264c-2.828-6.675-1.898-14.51-6.97-22.129
					c-19.228-20.753-26.955-47.334-38.916-70.012c-10.027-19.642-7.747-9.062-37.463-58.866
					c-12.991-23.021-6.513-14.269-11.034-32.73c-0.942-5.368-7.668-52.779-6.369-58.13c-0.108-4.157,3.045-6.898,0.265-12.162
					c-3.883-5.079-3.274-15.172-4.827-21.891c-11.146-39.598-17.144-19.632-17.359-79.544c-0.82-1.458,1.818-0.952-1.841-4.024
					c-3.333-0.005-2.099-0.003-5.436-0.007c-3.458,2.827-1.156,2.5-2.019,3.908c-4.778,41.625-4.497,36.088,1.917,54.078
					c24.6,67.022,10.909,48.093,22.338,130.105c-0.536,0.52,5.117-2.624,2.597-1.452c-1.118-1.293-5.72-6.625-6.522-7.593
					c2.298-1.786-3.433,2.052-2.736,1.844c28.829,62.941,14.822,22.869,46.284,89.469c5.031,10.488,10.975,22.016,19.806,29.007
					c20.212,45.051,47.438,83.534,55.769,103.592c15.921,38.301,71.394,95.404,77.05,105.61
					c16.408,29.61-5.841,21.177,79.268,69.369c26.204,14.781,27.161,13.448,30.317,18.121c1.471,1.305,2.884,3.331,5.801,3.521
					c-0.059,0.184,1.777,2.44,2.414,3.94c2.224,3.382,2.348,6.93,5.802,10.516c17.347,15.358,66.954,72.438,185.683,72.175
					c26.56,8.583,57.457,16.783,57.457,16.783c5.755,4.881,11.366,1.027,23.602,1.813c2.034,0.113,15.428,1.126,17.949,1.709
					c6.076,1.439,9.781,3.588,16.208,7.008C774.404,1561.167,807.692,1566.597,843.583,1562.113z"/>
			</g>
			<path fill="#595959" d="M826.02,1564.609c-22.08-0.121-19.615-10.191-39.49-3.744
				C772.908,1558.6,762.315,1564.322,826.02,1564.609z"/>
			<path fill="#595959" d="M700.736,1551.051c6.283-4.908,10.581-2.227,18.16-3.54c11.038-0.585,11.387,0.019,4.843-1.661
				c-12.504-3.287-6.048-2.968-19.748-6.057c-11.634-2.868-19.376-6.258-5.924,5.198L700.736,1551.051z"/>
			<path fill="#595959" d="M565.563,1519.03c8.968-0.604,11.827,1.991,15.606,2.431c5.876,0.558,8.83-2.363,16.638,3.829
				c1.349,2.51,0.859,1.608,2.255,4.155C577.753,1523.852,574.551,1522.377,565.563,1519.03z"/>
			<path fill="#595959" d="M607.083,1521.705c2.051,0.289,6.901-0.893,15.922-2.59c7.141-1.367,4.047-0.942,13.357-1.775
				C637.045,1521.112,620.22,1523.505,607.083,1521.705z"/>
			<path fill="#595959" d="M343.703,1336.522c-1.216-1.254-17.753-21.035-26.403-32.088c-3.551-4.777-4.04-5.135-8.703-15.481
				l-4.816-5.831C303.509,1287.031,323.11,1321.34,343.703,1336.522z"/>
			<path fill="#595959" d="M154.449,961.36c-1.658,12.525-1.478,7.71-0.788,21.118l1.396-2.275c1.719,25.12-2.32,8.146,1.983,34.603
				l-0.387,7.259l-1.666,0.762C149.88,985.383,149.434,977.997,154.449,961.36z"/>
			<path fill="#595959" d="M204.03,1103.171c-1.562-3.085-0.897-1.728-3.255-6.685c3.435,4.381,2.231,2.877,5.691,7.095l0.937,3.087
				l-3.788-0.552c-18.978-29.048,3.759,3.039-36.613-57.735c8.669,12.015,16.877,22.566,17.931,23.879
				C194.016,1082.749,193.837,1090.433,204.03,1103.171z"/>
			<path fill="#595959" d="M844.517,1561.953c1.554-1.597-2.339-0.717-5.274-1.027c-12.575-1.333-4.802-1.182-20.01,3.23
				C825.712,1563.873,827.309,1563.994,844.517,1561.953z"/>
			<path fill="#595959" d="M361.395,1377.576c1.432-1.563,2.068-3.136,0.207-6.316c-1.858-3.178-0.208-2.365-2.848-5.545
				c-2.667-3.142-7.144-6.095-8.506-8.895c-1.355-2.804-4.739-6.852-4.739-6.852c0.624,2.059,4.407,14.573,5.499,17.937
				l6.863,10.007L361.395,1377.576z"/>
			<path fill="#595959" d="M552.503,1503.266c-23-1.553-18.533-0.868-30.571-6.848l2.903-4.469l8.512,2.498
				c1.849,1.746,1.008,0.971,4.274,3.919C550.727,1502.723,551.294,1502.919,552.503,1503.266z"/>
			<path fill="#595959" d="M150.201,916.835c0.111,1.472,0.228,2.369,0.651,6.073c-2.919-2.698-3.994-3.681-5.35-4.99
				c0.778,1.878,6.895,15.757,9.98,22.246c0.13-5.292,0.064-3.445,0.315-8.622C150.313,917.273,150.93,918.889,150.201,916.835z"/>
			<path fill="#595959" d="M465.783,1435.728c9.046,18.43,11.719,18.575,19.453,23.62c0,0-17.501-23.667-17.502-23.668
				L465.783,1435.728z"/>
			<path fill="#595959" d="M671.814,1525.084c3.232,0.413,9.025-1.23,10.188-0.945c1.167,0.282,8.704,3.299,11,4.11
				c13.195,5.087,1.08,2.609,43.633,14.611l-3.998-0.11c8.269,3.056,5.394,2.031,13.531,4.813
				c-16.774-4.44-38.097-10.957-55.708-17.208c-2.488,0.252-1.236,0.143-5.926,0.508l-4.798-4.223L671.814,1525.084z"/>
			<path fill="#595959" d="M258.34,1198.448l-1.915-0.061c2.85,18.446,8.152,24.791,9.284,26.511l3.46,2.311
				C269.005,1226.773,258.506,1198.923,258.34,1198.448z"/>
			<path fill="#595959" d="M168.617,1039.431l-3.263-4.617c-4.263-18.657-5.108-62.826-1.631-33.136
				C165.77,1020.678,168.185,1025.267,168.617,1039.431z"/>
			<path fill="#595959" d="M137.29,858.391l-2.848,5.058c-0.098,1.817-0.077,1.023-0.327,9.689l3.449-2.982
				C137.34,864.261,137.398,866.853,137.29,858.391z"/>
			<path fill="#595959" d="M566.913,1506.356c3.246,7.278,8.685,7.164,18.518,9.994c-6.569-3.782-7.352-4.496-11.493-8.137
				C567.35,1506.503,568.241,1506.735,566.913,1506.356z"/>
			<path fill="#595959" d="M810.737,1553.203c8.284,6.176,20.496-1.537,30.92,2.729l3.134-0.21
				C815.456,1549.09,836.15,1555.569,810.737,1553.203z"/>
		</g>
		<g>
			<path fill="#595959" d="M742.379,1555.151c17.813,11.462,63.698,70.415,80.535,91.775c-13.668-22.45-50.462-81.74-70.796-95.523"
				/>
			<path fill="#595959" d="M130.183,869.944c-5.148,27.969-42.811,78.457-44.505,99.675c3.414-19.31,45.078-63.73,50.498-92.048"/>
			<path fill="#595959" d="M165.778,1010.273c16.373,33.387,66.803,53.651,77.54,67.987c-12.869-13.613-65.062-27.307-81.161-58.587
				"/>
			<path fill="#595959" d="M235.722,1196.213c20.457,8.043,56.511-3.063,68.593-0.266c-13.057-1.392-47.895,13.234-67.469,6.133"/>
			<path fill="#595959" d="M395.227,1390.586c19.522,7.615,54.991,3.901,75.65-1.408c-18.792,8.52-48.934,15.744-68.885,8.935"/>
			<path fill="#595959" d="M219.353,1131.202c10.796,2.64,29.592,14.723,38.809,20.903c-8.356-8.764-25.94-27.206-37.613-30.513"/>
			<path fill="#595959" d="M431.692,1425.417c9.206,22.514,16.606,63.176,19.747,86.382c1.384-21.099-1.458-54.927-10.919-76.541"/>
			<path fill="#595959" d="M215.768,1147.498c1.971,29.097-39.486,91.39-35.877,123.488c-7.118-32.928,29.644-101.146,27.028-128.59
				"/>
			<path fill="#595959" d="M794.54,1552.827c6.311-13.182,30.541-34.639,41.845-43.955c-12.803,7.397-36.685,23.582-43.242,36.882"
				/>
			<path fill="#595959" d="M573.833,1515.725c8.284-11.378,33.929-26.855,81.312-55.996c-25.166,12.209-76.135,36.591-86.504,50.074
				"/>
			<path fill="#595959" d="M144.986,903.56c-7.045,3.097-5.554,4.119-3.03,15.839c1.596,6.394,3.5,12.61,6.055,19.179
				C141.208,907.103,141.658,913.531,144.986,903.56z"/>
			<path fill="#595959" d="M802.09,1558.41c-2.931,0.848-9.872-2.56-8.34-8.146C796.212,1551.995,796.977,1552.124,802.09,1558.41z"
				/>
			<path fill="#595959" d="M210.335,1120.292c0.579,1.121,9.301,15.56,18.128,47.36c-2.723-4.427-1.171-1.815-6.717-11.344
				C204.793,1146.833,205.36,1146.665,210.335,1120.292z"/>
			<path fill="#595959" d="M743.265,1551.974c11.849,3.329,9.763,2.906,30.893,4.731c-14.654-4.199-12.253-3.336-23.706-7.669
				l-2.006-2.91C741.22,1546.885,736.562,1553.378,743.265,1551.974z"/>
			<path fill="#595959" d="M415.169,1407.297c-10.589-12.734-23.753-17.837-29.085-20.256c10.829,9.417,19.63,16.734,24.187,20.331
				L415.169,1407.297z"/>
			<path fill="#595959" d="M444.911,1427.978c-10.149-9.028-5.451-12.916-12.423-16.864c-3.301-1.873,6.113,1.235,8.761,3.166
				c2.08,1.573,9.206,5.281,11.525,6.473L444.911,1427.978z"/>
			<path fill="#595959" d="M283.209,1252.405c2.455,6.497,0.712,7.791,3.348,12.877c2.743,5.008,4.878,9.931,6.659,11.541
				c2.019,1.813,6.354,3.876,4.35,1.388C290.923,1269.581,290.653,1268.442,283.209,1252.405z"/>
		</g>
	</g>
	<g>
		<g>
			<g>
				<path fill="#202020" d="M843.663,149.102c-32.584-4.175-66.719,0.675-70.61,1.569c-6.391,3.472-13.41,7.71-21.636,7.611
					c-26.542,2.791-28.621-2.567-34.716,2.713c0,0-32.122,8.694-56.031,16.451c-69.695-0.609-150.115,23.657-186.823,80.619
					c-0.608,1.483-2.388,3.702-2.328,3.886c-2.864,0.156-4.231,2.152-5.662,3.431c-3.977,6.003-86.383,47.25-94.371,58.816
					c-7.089,10.531-9.026,22.593-15.559,31.218c0,0-14.6,16.42-22.493,26.665c-58.295,74.78-37.29,48.281-54.126,82.285
					c-2.144,4.583-32.589,52.453-49.692,90.628c-16.596,12.868-22.958,41.807-40.672,69.039
					c-10.553,17.14-9.152,13.635-24.298,46.342c-0.697-0.208,5.048,3.577,2.743,1.817c0.777-0.919,5.361-6.128,6.466-7.38
					c2.523,1.16-3.139-1.947-2.601-1.435c-13.053,95.886,3.228,58.138-22.802,129.736c-5.087,15.547-5.836,7.707-0.849,49.999
					c0.863,1.375-1.439,1.056,2.019,3.815c3.336-0.003,2.098-0.002,5.436-0.007c3.658-2.998,1.02-2.505,1.84-3.927
					c0.015-4.559-0.038-20.062,0.741-34.953c5.921-18.703,15.623-33.664,17.34-48.212c0.712-5.792,1.001-12.031,3.906-15.747
					c2.759-5.125-0.404-7.81-0.313-11.866c-1.322-5.235,4.975-49.326,5.766-54.746c2.788-19.85,1.193-19.327,23.056-53.372
					c2.731-4.209,8.758-13.672,19.449-27.83c8.745-14.324,15.453-32.332,24.793-50.754c13.457-27.166,19.795-22.581,22.801-38.248
					c1.919-9.803-0.03-5.859,14.01-36.582c10.808-22.901,7.486-22.927,61.363-89.096c16.757-20.375,13.215-13.037,20.473-27.724
					c13.574-27.269,3.101-15.587,57.377-54.671c17.552-14.543,37.705-11.56,49.918-26.621c8.14-9.989,12.298-19.347,21.547-26.723
					c53.211-42.764,47.102-29.671,59.806-35.666c31.813-11.949,29.591-17.793,49.19-18.643
					c44.298-2.049,17.873,12.612,101.169-14.685c30.434-9.282,73.452-17.745,96.058-15.844c6.479-5.082,13.854-3.544,22.095-2.815
					c3.892,0.862,7.631-0.671,11.429-1.295c10.162-2.128,5.335-1.18,6.563-5.982c-0.389,1.516,0.872,4.281-0.867,4.776
					c-11.961,2.471-13.829,3.18-17.119,2.442c-8.261-0.77-15.695-2.282-22.15,2.77c-14.065-1.208-51.55,2.159-90.596,13.935
					c-84.141,25.424-44.154,16.928-100.932,16.028c-24.815-0.41-22.538,6.458-55.138,18.624c-6.975,3.275-10.46,1.222-16.917,4.872
					c-59.113,33.655-56.594,53.694-72.565,65.066c-44.902,18.176-17.208,2.077-61.104,32.416
					c-26.654,18.579-26.508,17.911-28.236,20.969c-26.341,49.174-5.723,15.608-38.41,56.772
					c-53.842,68.473-40.043,51.824-56.971,85.511c-11.264,24.785-9.845,22.27-11.821,31.883c-2.94,14.717-5.038,6.143-21.412,35.178
					c-10.435,19.311-18.092,42.398-29.41,57.333c-8.118,10.66-17.942,26.11-19.292,28.204
					c-19.373,30.123-17.337,28.725-21.216,54.631c-3.136,21.58-5.413,43.736-5.411,44.345c0.109,6.075,1.799,12.603,1.066,15.847
					c-4.812,7.047-3.554,15.401-5.316,22.551c-10.155,35.354-17.119,19.501-17.461,77.934c5.202,1.4-8.626,1.712-3.807-0.294
					c-1.962-16.923-1.332-10.759-2.994-29.285c-1.519-16.517,14.916-38.385,17.651-60.738c5.755-17.942,1.795-32.397,9.45-88.947
					c0.662,0.074-5.316-2.516-2.911-1.265c-1.345,1.52-2.978,3.367-6.504,7.385c-2.414-1.606,2.979,2.556,2.526,1.944
					c22.917-50.077,26.734-45.643,35.921-66.198c14.499-32.198,19.455-40.608,29.356-49.079c2.595-5.753,23.544-48.36,43.856-80.601
					c6.472-9.406,10.394-21.691,14.841-31.392c4.68-10.121,1.358-4.709,40.639-56.06c38.78-50.274,15.899-11.673,38.584-57.976
					c4.435-9.054,1.537-6.803,52.569-37.41c35.27-21.138,40.646-20.815,44.045-26.363c1.258-1.303,2.786-2.772,3.868-2.727
					c3.524-1.648,3.185-3.47,4.452-5.135c5.356-8.593-2.134-3.713,13.951-17.552c57.795-49.666,53.071-36.585,80.491-49.13
					c37.975-11.606,14.63-14.291,68.322-8.015c8.242,1.162,10.035-2.634,36.605-10.448c69.269-20.951,43.376-12.487,64.689-13.915
					c1.889-0.111,15.069-1.146,17.584-1.751c5.994-1.466,9.882-3.744,15.887-7.078C775.67,150.405,808.276,144.751,843.663,149.102z
					"/>
			</g>
			<path fill="#202020" d="M826.517,146.599c-21.476,0.107-19.17,10.163-38.542,3.69
				C774.844,152.499,764.104,146.846,826.517,146.599z"/>
			<path fill="#202020" d="M704.249,159.806c6.163,4.936,10.406,2.286,17.749,3.62c10.766,0.632,11.128,0.026,4.735,1.68
				c-12.158,3.222-5.942,2.955-19.251,5.963c-11.296,2.796-18.907,6.169-5.81-5.222L704.249,159.806z"/>
			<path fill="#202020" d="M572.274,190.836c8.774,0.677,11.582-1.886,15.263-2.292c5.767-0.51,8.66,2.431,16.256-3.684
				c1.297-2.484,0.832-1.602,2.175-4.126C584.362,186.093,581.406,187.445,572.274,190.836z"/>
			<path fill="#202020" d="M612.898,188.508c2.008-0.273,6.8,0.952,15.592,2.704c6.988,1.416,3.956,0.969,13.07,1.868
				C642.201,189.324,625.738,186.814,612.898,188.508z"/>
			<path fill="#202020" d="M356.148,369.439c-1.343,1.385-17.411,20.697-25.713,31.336c-3.456,4.669-3.932,5.008-8.425,15.151
				l-4.698,5.686c-0.238-2.903,9.969-19.805,11.946-22.714c0,0,7.698-9.259,14.051-17.425c4.878-6.339,3.753-5.447,8.641-8.966
				C354.049,370.973,356.148,369.439,356.148,369.439z"/>
			<path fill="#202020" d="M171.583,735.303c-1.709-12.231-1.508-7.53-0.878-20.615l1.405,2.228
				c1.582-24.189-2.306-8.212,1.804-33.778l-0.428-7.093l-1.668-0.754C166.906,712.017,166.514,719.075,171.583,735.303z"/>
			<path fill="#202020" d="M220.157,597.116c-1.537,3.017-0.871,1.667-3.187,6.51c3.387-4.256,2.198-2.794,5.61-6.89l0.906-3.01
				l-3.77,0.506c-19.193,29.062,4.075-3.347-36.066,56.167c9.09-12.393,16.902-22.211,17.719-23.211
				C210.366,616.982,210.094,609.509,220.157,597.116z"/>
			<path fill="#202020" d="M844.575,149.262c1.526,1.606-2.257,0.713-5.148,1.027c-12.251,1.327-4.68,1.185-19.535-3.241
				C826.221,147.335,827.743,147.215,844.575,149.262z"/>
			<path fill="#202020" d="M373.12,329.083c1.432,1.563,2.078,3.127,0.28,6.249c-1.796,3.12-0.177,2.336-2.745,5.449
				c-2.595,3.074-6.979,5.938-8.291,8.689c-1.304,2.754-4.598,6.713-4.598,6.713c0.573-1.964,4.182-14.363,5.214-17.66l6.656-9.813
				L373.12,329.083z"/>
			<path fill="#202020" d="M559.619,206.425c-22.629,1.345-18.215,0.723-29.905,6.531l2.89,4.475l8.322-2.404
				c1.81-1.734,0.987-0.964,4.153-3.861C557.888,206.949,558.418,206.765,559.619,206.425z"/>
			<path fill="#202020" d="M167.479,778.73c0.107-1.435,0.222-2.311,0.636-5.923c-2.909,2.623-3.983,3.58-5.336,4.855
				c0.845-2,6.971-15.604,9.913-21.675c0.147,5.157,0.075,3.36,0.342,8.412C167.496,778.55,168.209,776.713,167.479,778.73z"/>
			<path fill="#202020" d="M475.232,272.691c8.683-18.201,11.318-18.322,18.848-23.245c0,0-16.928,23.312-16.929,23.314
				L475.232,272.691z"/>
			<path fill="#202020" d="M676.144,185.583c3.155-0.393,8.82,1.282,9.953,1.004c1.137-0.275,8.479-3.246,10.716-4.043
				c12.749-4.971,0.952-2.55,42.519-14.398l-3.901,0.095c8.058-3.023,5.243-2.004,13.188-4.761
				c-16.268,4.356-37.182,10.812-54.299,16.948c-2.436-0.266-1.229-0.151-5.789-0.54l-4.661,4.19L676.144,185.583z"/>
			<path fill="#202020" d="M273.239,504.322l-1.902,0.039c2.628-18.08,7.801-24.227,8.92-25.927l3.407-2.23
				C283.664,476.204,273.239,504.321,273.239,504.322z"/>
			<path fill="#202020" d="M185.324,659.154l-3.228,4.49c-4.12,18.112-4.756,61.347-1.434,32.352
				C182.591,677.575,184.982,672.984,185.324,659.154z"/>
			<path fill="#202020" d="M154.651,835.736l-2.851-4.938c-0.099-1.78-0.076-0.982-0.333-9.457l3.451,2.913
				C154.699,830.01,154.756,827.453,154.651,835.736z"/>
			<path fill="#202020" d="M573.706,203.475c3.109-7.217,8.442-7.061,18.047-9.802c-6.433,3.734-7.177,4.435-11.183,8.013
				C574.108,203.339,574.999,203.111,573.706,203.475z"/>
			<path fill="#202020" d="M811.612,157.991c8.089-6.178,19.975,1.568,30.171-2.707l3.06,0.211
				C816.255,162.111,836.403,155.657,811.612,157.991z"/>
		</g>
		<g>
			<path fill="#202020" d="M542.356,213.461c-18.905,23.858-26.003,80.462-26.212,111.155
				c-3.372-32.513-1.498-89.624,15.905-111.688"/>
			<path fill="#202020" d="M799.372,160.206c-27.735,24.222-37.394,87.728-48.032,102.126c8.837-15.39,12.406-80.816,38.058-104.639
				"/>
			<path fill="#202020" d="M701.294,169.608c-9.748-33.679-57.922-60.713-65.658-78.565c8.624,14.183,62.405,39.355,71.663,70.64"/>
			<path fill="#202020" d="M172.533,754.139c10.904,17.467,47.771,32.212,54.658,40.403c-8.079-7.617-46.429-18.614-57.386-35.259"
				/>
			<path fill="#202020" d="M366.722,361.955c-9.066,18.497-8.039,53.572-4.474,73.891c-6.941-19.284-11.645-49.409-3.434-68.13"/>
			<path fill="#202020" d="M284.328,450.001c-10.187,3.96-33.038,5.007-44.007,4.939c11.355,3.013,36.308,7.934,47.495,3.808"/>
			<path fill="#202020" d="M467.855,270.253c-23.454,0.501-63.289-8.035-86.23-13.532c18.138,8.482,50.604,18.927,74.201,18.024"/>
			<path fill="#202020" d="M215.494,583.862c-18.05,19.116-95.463,31.539-115.308,54c18.474-25.88,93.873-44.099,113.123-63.833"/>
			<path fill="#202020" d="M599.187,184.53c-11.574-1.171-33.65-13.889-43.533-20.019c8.702,7.61,27.092,21.49,39.047,22.952"/>
			<path fill="#202020" d="M254.876,535.168c10.598,9.102,23.989,34.703,49.729,82.308c-20.793-49.575-33.954-77.744-43.576-86.436"
				/>
			<path fill="#202020" d="M791.67,162.294c-3.025-7.026-3.948-5.577-15.461-3.064c-6.238,1.58-12.299,3.467-18.698,5.999
				C788.209,158.526,781.906,158.937,791.67,162.294z"/>
			<path fill="#202020" d="M152.772,803.166c-0.851-2.859,2.541-9.631,8.131-8.125C159.178,797.439,159.049,798.186,152.772,803.166
				z"/>
			<path fill="#202020" d="M229.818,563.928c-0.402,1.031-6.799,20.199-22.623,44.248l3.782-12.358
				C206.884,577.976,206.417,577.436,229.818,563.928z"/>
			<path fill="#202020" d="M256.249,529.348c-6.974,9.601-5.597,7.355-14.158,25.776c8.871-11.98,6.437-9.019,14.664-18.358
				l3.349-0.766C261.661,529.178,257.015,522.98,256.249,529.348z"/>
			<path fill="#202020" d="M303.051,427.898c12.541-10.292,17.384-23.284,19.604-28.282c-9.132,10.494-16.265,19.061-19.748,23.473
				L303.051,427.898z"/>
			<path fill="#202020" d="M280.144,454.802c8.879-9.921,12.741-5.201,16.579-12.024c1.817-3.226-1.152,6-3.036,8.582
				c-1.533,2.025-5.131,8.994-6.285,11.258L280.144,454.802z"/>
			<path fill="#202020" d="M435.77,292.836c-8.776,3.399-5.123-1.076-19.725,7.241c-2.017,1.137-3.617,2.147-4.396,3.052
				c-1.56,1.816-3.838,6.435-1.286,4.38C415.807,303.124,417.152,301.501,435.77,292.836z"/>
		</g>
		<g>
			<g>
				<path fill="#595959" d="M131.739,843.583c-4.427-36.913,1.636-70.729,1.963-72.162c3.419-6.288,7.877-13.868,7.836-22.316
					c3.017-27.348-2.198-29.299,2.83-35.132c0,0,12.564-46.335,21.312-68.952c3.649-9.25,1.619-9.872-0.421-35.379
					c-3.142-12.039,1.52-22.801,6.559-34.745c17.117-40.219,6.073-40.238,62.456-103.235c2.877-3.31,12.492-4.23,15.134-9.833
					c-0.033-1.101,1.464-2.672,2.792-3.968c3.964-2.481,5.229-6.254,14.36-23.16c19.116-33.518,9.909-16.585,35.678-59.342
					c7.802-12.386,5.733-12.43,26.189-21.078c14.888-6.166,14.156-6.591,29.835-20.117c8.507-6.914,61.679-50.472,81.383-59.048
					c32.178-14.157,68.23-39.347,109.445-57.961c13.058-14.976,29.247-19.215,55.83-32.48c14.496-6.967,13.75-11.832,62.558-33.922
					c0.623,0.451-3.603-4.926-1.974-2.518c-4.449,3.828-6.327,5.459-7.598,6.56c-1.264-2.402,1.348,3.57,1.277,2.908
					c20.724-2.873,39.475-4.663,55.418-5.521c51.067-2.594,60.963-13.355,81.237-19.249c11.83-3.579,2.693-4.919,46.767,0.056
					c2.055-4.819,1.735,9.01,0.301,3.807c-36.508,0.22-35.415-0.375-53.1,7.097c-23.845,10.215-25.79,10.592-32.633,11.397
					c-5.878,0.696-11.843,0.832-17.307,4.486c-4.578,1.026-14.692-2.388-22.081-0.278c-60.339,6.025-72.485,7.115-129.328,49.615
					c-27.44,16.274-56.499,22.907-80.233,44.833c-6.106,4.152-14.457,3.764-21.455,6.595
					c-52.017,22.353-55.479,24.184-117.955,75.471c-21.439,17.786-12.93,13.284-27.961,20.931
					c-27.992,14.219-17.09,4.723-56.393,59.498c-14.87,18.273-12.495,39.023-27.067,50.917c-7.551,6.128-13.327,9.443-18.847,14.044
					c-11.433,9.528-40.32,49.861-42.034,58.534c-1.508,10.35-7.634,24.443-12.037,33.875c-10.613,14.083-10.617,28.824-9.461,45.925
					c2.459,28.804,2.658,29.128-10.216,69.056c-0.296,1-24.787,72.259-21.226,115.474c-5.063,6.625-3.551,14.324-2.794,22.704
					c0.871,3.99-0.653,7.79-1.27,11.7c-2.102,10.417-1.188,5.479-5.955,6.731c1.523-0.398,4.268,0.918,4.789-0.887
					c2.503-12.237,3.219-14.188,2.494-17.55c-0.728-8.501-2.256-15.996,2.839-22.648c-3.693-45.806,22.493-116.166,28.024-138.046
					c10.693-22.603,0.684-46.801,4.16-69.891c2.485-15.895,6.506-14.993,14.107-33.36c11.341-27.224-0.135-21.209,40.858-72.6
					c4.886-6.172,11.309-10.768,17.808-15.233c21.34-14.815,17.234-16.438,25.598-37.435c7.613-19.223,7.799-14.381,35.509-54.718
					c10.447-14.978,5.82-11.25,26.401-22.173c19.131-9.952,11.203-4.465,29.026-19.966c65.133-53.753,69.926-56.377,122.264-78.684
					c6.675-2.828,14.51-1.898,22.129-6.97c20.749-19.224,47.331-26.954,70.012-38.916c19.641-10.027,9.062-7.747,58.866-37.463
					c23.021-12.991,14.277-6.515,32.73-11.034c5.358-0.941,52.777-7.668,58.13-6.369c4.157-0.108,6.897,3.045,12.162,0.265
					c5.079-3.883,15.171-3.274,21.891-4.827c39.601-11.147,19.628-17.144,79.544-17.358c1.458-0.82,0.952,1.818,4.024-1.841
					c0.005-3.461,0.003-1.974,0.008-5.436c-2.827-3.458-2.5-1.156-3.908-2.019c-41.625-4.778-36.088-4.497-54.078,1.917
					c-67.029,24.602-48.056,10.906-130.106,22.338c-0.52-0.536,2.624,5.117,1.453,2.597c1.293-1.118,6.623-5.718,7.593-6.522
					c1.786,2.298-2.052-3.433-1.844-2.736c-64.982,29.766-21.072,13.972-89.469,46.284c-10.631,5.1-22.054,11.024-29.007,19.806
					c-45.196,20.277-83.404,47.384-103.592,55.769c-38.292,15.917-95.519,71.458-105.61,77.05
					c-29.606,16.406-21.184-5.828-69.369,79.268c-14.759,26.168-13.444,27.158-18.121,30.317c-1.305,1.471-3.331,2.884-3.521,5.801
					c-0.184-0.059-2.44,1.777-3.94,2.414c-3.382,2.224-6.93,2.348-10.516,5.802c-15.305,17.288-72.437,66.961-72.175,185.683
					c-8.581,26.556-16.783,57.457-16.783,57.457c-4.881,5.755-1.027,11.366-1.813,23.603c-0.112,2.034-1.126,15.428-1.709,17.949
					c-1.438,6.071-3.58,9.766-7.008,16.208C132.686,774.404,127.254,807.692,131.739,843.583z"/>
			</g>
			<path fill="#595959" d="M129.243,826.02c0.121-22.08,10.19-19.615,3.744-39.49C135.259,772.868,129.53,762.403,129.243,826.02z"
				/>
			<path fill="#595959" d="M142.801,700.736c4.908,6.283,2.227,10.581,3.54,18.16c0.585,11.022-0.024,11.408,1.661,4.843
				c3.265-12.426,2.978-6.094,6.057-19.748c2.868-11.634,6.257-19.376-5.198-5.924L142.801,700.736z"/>
			<path fill="#595959" d="M174.822,565.563c0.604,8.968-1.991,11.827-2.431,15.606c-0.558,5.874,2.363,8.83-3.829,16.638
				c-2.495,1.341-1.619,0.865-4.155,2.255C170,577.753,171.476,574.551,174.822,565.563z"/>
			<path fill="#595959" d="M172.148,607.083c-0.287,2.039,0.869,6.772,2.59,15.922c1.368,7.148,0.944,4.067,1.775,13.357
				C172.74,637.045,170.347,620.22,172.148,607.083z"/>
			<path fill="#595959" d="M357.33,343.703c1.254-1.216,21.035-17.753,32.088-26.403c4.781-3.553,5.135-4.04,15.481-8.703
				l5.831-4.816C406.821,303.509,372.512,323.11,357.33,343.703z"/>
			<path fill="#595959" d="M732.492,154.449c-12.525-1.658-7.71-1.478-21.118-0.788l2.275,1.396
				c-25.119,1.719-8.146-2.32-34.603,1.983l-7.259-0.387l-0.763-1.666C708.469,149.88,715.855,149.434,732.492,154.449z"/>
			<path fill="#595959" d="M590.681,204.03c3.091-1.565,1.73-0.898,6.685-3.255c-4.388,3.441-2.869,2.225-7.095,5.691l-3.087,0.937
				l0.552-3.788c28.432-18.575-2.284,3.257,57.735-36.613c-12.005,8.662-22.568,16.878-23.879,17.931
				C611.101,194.019,603.423,193.834,590.681,204.03z"/>
			<path fill="#595959" d="M131.899,844.517c1.597,1.555,0.717-2.341,1.027-5.274c1.333-12.575,1.18-4.808-3.23-20.01
				C129.979,825.707,129.859,827.314,131.899,844.517z"/>
			<path fill="#595959" d="M316.276,361.395c1.563,1.432,3.137,2.068,6.316,0.207c3.178-1.858,2.364-0.208,5.545-2.848
				c3.142-2.667,6.095-7.144,8.895-8.506c2.804-1.355,6.852-4.739,6.852-4.739c-2.02,0.612-14.575,4.408-17.937,5.499l-10.007,6.863
				L316.276,361.395z"/>
			<path fill="#595959" d="M190.586,552.503c1.552-22.997,0.866-18.53,6.848-30.571l4.469,2.903l-2.498,8.511
				c-1.755,1.858-0.967,1.003-3.919,4.274C191.107,550.794,190.933,551.296,190.586,552.503z"/>
			<path fill="#595959" d="M777.017,150.201c-1.472,0.111-2.369,0.228-6.073,0.651c2.698-2.919,3.684-3.997,4.99-5.35
				c-1.852,0.767-15.727,6.881-22.246,9.98c5.29,0.13,3.447,0.064,8.622,0.315C776.578,150.314,774.963,150.93,777.017,150.201z"/>
			<path fill="#595959" d="M258.124,465.783c-18.43,9.046-18.575,11.719-23.62,19.453c0.001,0,23.667-17.501,23.668-17.502
				L258.124,465.783z"/>
			<path fill="#595959" d="M168.768,671.814c-0.413,3.233,1.23,9.025,0.945,10.188c-0.282,1.167-3.299,8.704-4.11,11
				c-5.119,13.277-2.613,1.096-14.611,43.633l0.11-3.998c-3.056,8.269-2.026,5.38-4.813,13.531
				c4.441-16.78,10.956-38.095,17.209-55.708c-0.252-2.487-0.145-1.258-0.508-5.926l4.223-4.798L168.768,671.814z"/>
			<path fill="#595959" d="M495.404,258.34l0.061-1.915c-18.446,2.85-24.791,8.152-26.511,9.284l-2.311,3.46
				C467.078,269.006,494.927,258.507,495.404,258.34z"/>
			<path fill="#595959" d="M654.422,168.617l4.617-3.263c18.654-4.262,62.839-5.11,33.136-1.631
				C673.4,165.746,668.562,168.185,654.422,168.617z"/>
			<path fill="#595959" d="M835.461,137.29l-5.058-2.848c-1.817-0.098-1.021-0.077-9.689-0.327l2.982,3.449
				C829.591,137.34,827.003,137.398,835.461,137.29z"/>
			<path fill="#595959" d="M187.496,566.912c-7.282,3.247-7.165,8.689-9.994,18.518c3.851-6.692,4.548-7.412,8.137-11.493
				C187.348,567.354,187.119,568.234,187.496,566.912z"/>
			<path fill="#595959" d="M140.649,810.737c-6.176,8.284,1.537,20.496-2.729,30.92l0.21,3.134
				C144.762,815.456,138.283,836.149,140.649,810.737z"/>
		</g>
		<g>
			<path fill="#595959" d="M138.701,742.379c-11.462,17.813-70.414,63.699-91.775,80.535c22.45-13.667,81.74-50.462,95.523-70.796"
				/>
			<path fill="#595959" d="M823.908,130.183c-27.879-5.131-78.491-42.813-99.675-44.505c19.31,3.415,63.73,45.078,92.048,50.498"/>
			<path fill="#595959" d="M683.579,165.778c-33.387,16.373-53.651,66.803-67.987,77.54c13.613-12.869,27.307-65.062,58.587-81.161"
				/>
			<path fill="#595959" d="M497.639,235.722c-8.043,20.457,3.062,56.511,0.266,68.594c1.392-13.057-13.234-47.895-6.133-67.469"/>
			<path fill="#595959" d="M303.266,395.227c-7.615,19.522-3.901,54.991,1.408,75.65c-8.523-18.799-15.744-48.934-8.935-68.885"/>
			<path fill="#595959" d="M562.65,219.353c-2.641,10.797-14.727,29.598-20.903,38.809c8.763-8.355,27.206-25.94,30.513-37.613"/>
			<path fill="#595959" d="M268.435,431.692c-22.514,9.206-63.176,16.606-86.382,19.747c21.099,1.384,54.927-1.458,76.541-10.92"/>
			<path fill="#595959" d="M546.354,215.768c-29.089,1.97-91.404-39.485-123.488-35.877c32.928-7.118,101.146,29.644,128.59,27.028"
				/>
			<path fill="#595959" d="M141.025,794.54c13.186,6.313,34.647,30.551,43.955,41.845c-7.397-12.803-23.582-36.685-36.882-43.242"/>
			<path fill="#595959" d="M178.128,573.833c11.858,8.633,29.035,37.475,55.996,81.312c-12.209-25.166-36.591-76.135-50.074-86.504"
				/>
			<path fill="#595959" d="M790.292,144.986c-3.097-7.045-4.119-5.554-15.839-3.03c-7.11,1.774-13.464,3.833-19.179,6.055
				C786.744,141.208,780.322,141.658,790.292,144.986z"/>
			<path fill="#595959" d="M135.442,802.09c-0.848-2.931,2.56-9.872,8.146-8.34C141.858,796.211,141.728,796.977,135.442,802.09z"/>
			<path fill="#595959" d="M573.56,210.335c-1.121,0.579-15.565,9.302-47.36,18.128c4.424-2.721,1.814-1.171,11.344-6.717
				C547.019,204.792,547.187,205.36,573.56,210.335z"/>
			<path fill="#595959" d="M141.878,743.265c-3.329,11.849-2.906,9.763-4.731,30.893c4.248-14.823,3.427-12.493,7.669-23.706
				l2.91-2.006C146.967,741.219,140.474,736.562,141.878,743.265z"/>
			<path fill="#595959" d="M286.555,415.169c12.735-10.589,17.837-23.754,20.256-29.085c-9.436,10.851-16.753,19.653-20.331,24.187
				L286.555,415.169z"/>
			<path fill="#595959" d="M265.874,444.911c9.028-10.149,12.916-5.451,16.864-12.423c1.873-3.301-1.235,6.113-3.166,8.761
				c-1.573,2.08-5.281,9.206-6.473,11.525L265.874,444.911z"/>
			<path fill="#595959" d="M441.448,283.209c-6.497,2.455-7.791,0.712-12.878,3.348c-5.008,2.743-9.931,4.878-11.541,6.659
				c-1.803,2.008-3.882,6.358-1.388,4.35C424.271,290.923,425.411,290.653,441.448,283.209z"/>
		</g>
	</g>
	<g>
		<g>
			<g>
				<path fill="#202020" d="M1544.75,843.663c4.293-33.514-0.844-67.454-1.569-70.61c-3.452-6.354-7.71-13.401-7.611-21.636
					c-2.79-26.536,2.566-28.623-2.713-34.716c0,0-8.688-32.098-16.451-56.031c0.611-70.113-23.939-150.297-80.62-186.823
					c-1.483-0.608-3.702-2.388-3.886-2.328c-0.156-2.864-2.151-4.231-3.431-5.662c-6.001-3.976-47.2-86.349-58.816-94.371
					c-10.541-7.096-22.588-9.022-31.218-15.559c0,0-16.421-14.601-26.665-22.493c-74.781-58.297-48.292-37.295-82.285-54.126
					c-4.376-2.047-52.439-32.583-90.628-49.692c-12.87-16.599-41.803-22.955-69.038-40.672
					c-17.185-10.58-13.649-9.159-46.342-24.298c0.208-0.697-3.577,5.048-1.817,2.743c0.919,0.776,6.13,5.363,7.38,6.466
					c-1.16,2.523,1.947-3.139,1.436-2.601c-98.852-13.456-56.775,3.723-129.736-22.802c-15.559-5.091-7.745-5.831-49.999-0.849
					c-1.375,0.863-1.056-1.439-3.815,2.019c0.003,3.336,0.002,2.098,0.007,5.436c2.998,3.658,2.505,1.02,3.927,1.84
					c4.501,0.015,20.067-0.038,34.953,0.741c18.704,5.921,33.663,15.623,48.212,17.34c5.792,0.712,12.031,1.001,15.747,3.906
					c5.125,2.759,7.81-0.404,11.866-0.313c5.247-1.325,49.455,4.994,54.746,5.766c19.904,2.795,19.374,1.224,53.373,23.056
					c4.211,2.732,13.666,8.754,27.83,19.449c14.354,8.763,32.286,15.43,50.754,24.793c27.224,13.487,22.55,19.789,38.248,22.801
					c9.838,1.926,5.918-0.003,36.582,14.01c22.535,10.635,22.541,7.172,89.096,61.363c20.375,16.757,13.038,13.216,27.724,20.473
					c27.273,13.576,15.591,3.106,54.671,57.377c14.543,17.552,11.56,37.705,26.621,49.918c9.992,8.143,19.345,12.295,26.723,21.547
					c42.767,53.215,29.67,47.101,35.666,59.806c11.935,31.777,17.795,29.629,18.643,49.19c2.036,44.018-12.55,18.056,14.685,101.169
					c9.288,30.453,17.743,73.486,15.844,96.058c5.086,6.483,3.542,13.871,2.815,22.095c-0.862,3.891,0.671,7.631,1.295,11.429
					c2.128,10.162,1.182,5.335,5.983,6.563c-1.516-0.389-4.281,0.872-4.776-0.867c-2.471-11.961-3.18-13.829-2.442-17.119
					c0.767-8.225,2.286-15.69-2.77-22.15c1.209-14.066-2.158-51.547-13.935-90.596c-25.414-84.106-16.928-44.235-16.028-100.932
					c0.409-24.803-6.574-22.849-18.625-55.138c-3.274-6.975-1.222-10.46-4.872-16.917c-33.917-59.577-53.522-56.353-65.066-72.565
					c-18.209-44.986-2.118-17.267-32.416-61.104c-18.513-26.559-17.914-26.51-20.969-28.236
					c-49.228-26.37-15.428-5.579-56.772-38.41c-68.456-53.828-51.818-40.04-85.511-56.971
					c-24.759-11.252-22.254-9.842-31.883-11.821c-14.718-2.94-6.142-5.038-35.178-21.412c-19.332-10.446-42.397-18.092-57.333-29.41
					c-10.661-8.119-26.11-17.942-28.203-19.292c-30.031-19.314-28.645-17.325-54.631-21.216
					c-21.579-3.136-43.736-5.413-44.345-5.411c-6.074,0.109-12.603,1.799-15.847,1.066c-7.047-4.812-15.401-3.554-22.551-5.316
					c-35.204-10.111-19.535-17.12-77.934-17.461c-1.4,5.202-1.712-8.626,0.295-3.807c16.885-1.958,10.775-1.334,29.285-2.994
					c16.526-1.52,38.374,14.915,60.739,17.651c17.938,5.754,32.379,1.795,88.947,9.45c-0.074,0.662,2.516-5.316,1.265-2.911
					c-1.371-1.213-3.125-2.765-7.385-6.504c1.606-2.414-2.556,2.979-1.944,2.526c48.243,22.077,46.664,27.19,66.198,35.921
					c32.034,14.425,40.569,19.409,49.079,29.356c5.781,2.608,48.349,23.537,80.601,43.856c9.416,6.479,21.678,10.389,31.392,14.841
					c10.16,4.699,4.769,1.402,56.06,40.639c50.436,38.905,11.606,15.866,57.976,38.584c9.053,4.435,6.803,1.536,37.41,52.569
					c21.138,35.271,20.816,40.646,26.363,44.045c1.303,1.258,2.772,2.786,2.726,3.868c1.648,3.525,3.47,3.185,5.135,4.452
					c8.594,5.356,3.713-2.135,17.552,13.951c49.8,57.949,36.617,53.141,49.13,80.491c11.604,37.969,14.293,14.618,8.015,68.322
					c-1.162,8.242,2.635,10.039,10.448,36.605c20.945,69.256,12.489,43.408,13.915,64.689c0.11,1.889,1.146,15.069,1.75,17.584
					c1.452,5.938,3.656,9.723,7.078,15.887C1543.447,775.67,1549.102,808.276,1544.75,843.663z"/>
			</g>
			<path fill="#202020" d="M1547.253,826.517c-0.106-21.476-10.165-19.171-3.69-38.542
				C1541.357,774.864,1547.006,764.04,1547.253,826.517z"/>
			<path fill="#202020" d="M1534.046,704.249c-4.931,6.159-2.287,10.416-3.62,17.749c-0.633,10.763-0.026,11.128-1.68,4.735
				c-3.206-12.088-2.967-5.994-5.963-19.251c-2.796-11.296-6.169-18.907,5.222-5.811L1534.046,704.249z"/>
			<path fill="#202020" d="M1503.016,572.274c-0.677,8.774,1.886,11.582,2.291,15.263c0.51,5.767-2.431,8.661,3.684,16.256
				c2.549,1.331,1.651,0.858,4.126,2.175C1507.703,584.134,1506.29,581.089,1503.016,572.274z"/>
			<path fill="#202020" d="M1505.344,612.898c0.271,1.997-0.929,6.683-2.704,15.592c-1.415,6.988-0.969,3.953-1.868,13.07
				C1504.533,642.201,1507.035,625.711,1505.344,612.898z"/>
			<path fill="#202020" d="M1324.413,356.148c-1.173-1.137-20.606-17.34-31.336-25.713c-4.636-3.433-4.981-3.919-15.15-8.425
				l-5.686-4.698c2.903-0.238,19.807,9.97,22.714,11.946c0,0,9.259,7.697,17.425,14.051c6.339,4.878,5.445,3.751,8.966,8.641
				C1322.879,354.049,1324.413,356.148,1324.413,356.148z"/>
			<path fill="#202020" d="M958.549,171.583c12.231-1.709,7.53-1.508,20.615-0.878l-2.228,1.405
				c24.189,1.582,8.212-2.306,33.778,1.804l7.093-0.428l0.754-1.668C981.835,166.906,974.777,166.514,958.549,171.583z"/>
			<path fill="#202020" d="M1096.737,220.157c-3.019-1.538-1.659-0.868-6.51-3.187c4.259,3.389,2.79,2.195,6.89,5.61l3.01,0.906
				l-0.506-3.77c-28.854-19.056,2.958,3.81-56.167-36.066c12.375,9.076,22.208,16.9,23.211,17.719
				C1076.871,210.368,1084.343,210.093,1096.737,220.157z"/>
			<path fill="#202020" d="M1544.59,844.575c-1.607,1.527-0.713-2.257-1.026-5.148c-1.328-12.25-1.187-4.675,3.241-19.535
				C1546.511,826.35,1546.622,827.874,1544.59,844.575z"/>
			<path fill="#202020" d="M1364.769,373.12c-1.563,1.432-3.127,2.078-6.249,0.28c-3.12-1.796-2.336-0.177-5.448-2.745
				c-3.074-2.595-5.938-6.979-8.689-8.291c-2.755-1.304-6.713-4.598-6.713-4.598c1.964,0.573,14.363,4.182,17.66,5.214l9.813,6.656
				L1364.769,373.12z"/>
			<path fill="#202020" d="M1487.427,559.619c-1.346-22.629-0.723-18.215-6.531-29.905l-4.475,2.89l2.404,8.322
				c1.736,1.811,0.971,0.995,3.861,4.153C1486.906,557.897,1487.087,558.417,1487.427,559.619z"/>
			<path fill="#202020" d="M915.122,167.479c1.435,0.107,2.311,0.222,5.923,0.636c-2.617-2.903-3.58-3.983-4.855-5.336
				c1.984,0.838,15.596,6.967,21.675,9.913c-5.161,0.147-3.362,0.075-8.412,0.342C915.293,167.492,917.136,168.208,915.122,167.479z
				"/>
			<path fill="#202020" d="M1421.161,475.232c18.212,8.69,18.325,11.323,23.245,18.848c0,0-23.313-16.928-23.314-16.929
				L1421.161,475.232z"/>
			<path fill="#202020" d="M1508.27,676.144c0.393,3.155-1.282,8.82-1.004,9.953c0.275,1.137,3.246,8.479,4.043,10.716
				c5.025,12.89,2.546,0.94,14.398,42.519l-0.095-3.902c3.023,8.059,2.004,5.243,4.76,13.188
				c-4.36-16.279-10.811-37.178-16.948-54.299c0.262-2.397,0.154-1.26,0.54-5.789l-4.19-4.661L1508.27,676.144z"/>
			<path fill="#202020" d="M1189.531,273.239l-0.039-1.902c18.08,2.628,24.227,7.8,25.927,8.92l2.23,3.407
				C1217.648,283.664,1189.531,273.239,1189.531,273.239z"/>
			<path fill="#202020" d="M1034.699,185.324l-4.49-3.228c-18.112-4.12-61.347-4.756-32.352-1.434
				C1016.277,182.592,1020.868,184.982,1034.699,185.324z"/>
			<path fill="#202020" d="M858.116,154.651l4.938-2.851c1.784-0.099,0.977-0.076,9.457-0.333l-2.913,3.451
				C863.845,154.699,866.402,154.756,858.116,154.651z"/>
			<path fill="#202020" d="M1490.377,573.706c7.215,3.108,7.059,8.434,9.802,18.047c-3.719-6.405-4.418-7.159-8.013-11.183
				C1490.517,574.123,1490.733,574.968,1490.377,573.706z"/>
			<path fill="#202020" d="M1535.861,811.612c6.178,8.09-1.568,19.975,2.708,30.171l-0.211,3.06
				C1531.745,816.274,1538.193,836.386,1535.861,811.612z"/>
		</g>
		<g>
			<path fill="#202020" d="M1480.391,542.356c-23.858-18.905-80.464-26.003-111.155-26.212
				c32.513-3.372,89.625-1.498,111.688,15.905"/>
			<path fill="#202020" d="M1533.646,799.372c-24.222-27.735-87.728-37.394-102.126-48.033
				c15.39,8.837,80.816,12.405,104.639,38.059"/>
			<path fill="#202020" d="M1524.244,701.294c33.684-9.75,60.713-57.923,78.565-65.658c-14.158,8.608-39.347,62.403-70.64,71.663"/>
			<path fill="#202020" d="M939.713,172.533c-17.467,10.904-32.212,47.771-40.403,54.658c7.617-8.079,18.614-46.429,35.259-57.386"
				/>
			<path fill="#202020" d="M1331.897,366.722c-18.497-9.066-53.572-8.039-73.891-4.474c19.271-6.936,49.403-11.648,68.13-3.434"/>
			<path fill="#202020" d="M1243.851,284.328c-3.96-10.187-5.007-33.038-4.939-44.007c-3.013,11.355-7.933,36.308-3.807,47.495"/>
			<path fill="#202020" d="M1423.599,467.855c-0.502-23.454,8.036-63.29,13.532-86.23c-8.464,18.1-18.927,50.582-18.024,74.201"/>
			<path fill="#202020" d="M1109.99,215.494c-19.116-18.05-31.538-95.464-54-115.308c25.892,18.482,44.083,93.856,63.833,113.123"/>
			<path fill="#202020" d="M1509.322,599.187c1.171-11.578,13.899-33.667,20.019-43.533c-7.61,8.702-21.49,27.092-22.953,39.046"/>
			<path fill="#202020" d="M1158.685,254.876c-9.06,10.55-34.359,23.803-82.308,49.729c49.575-20.792,77.744-33.954,86.436-43.576"
				/>
			<path fill="#202020" d="M1531.558,791.67c7.024-3.024,5.581-3.934,3.064-15.461c-1.762-6.954-3.804-13.151-5.999-18.698
				C1535.328,788.205,1534.913,781.911,1531.558,791.67z"/>
			<path fill="#202020" d="M890.686,152.772c2.859-0.851,9.631,2.541,8.125,8.131C896.412,159.178,895.666,159.049,890.686,152.772z
				"/>
			<path fill="#202020" d="M1129.925,229.818c-1.041-0.406-20.227-6.817-44.248-22.623l12.358,3.782
				C1115.876,206.885,1116.416,206.417,1129.925,229.818z"/>
			<path fill="#202020" d="M1164.504,256.249c-9.6-6.974-7.355-5.597-25.776-14.158c11.975,8.868,9.015,6.433,18.358,14.664
				l0.766,3.349C1164.677,261.661,1170.869,257.015,1164.504,256.249z"/>
			<path fill="#202020" d="M1265.954,303.051c10.291,12.541,23.306,17.393,28.282,19.604c-10.494-9.132-19.054-16.26-23.473-19.748
				L1265.954,303.051z"/>
			<path fill="#202020" d="M1239.05,280.144c9.921,8.879,5.201,12.742,12.024,16.579c3.226,1.817-6-1.152-8.582-3.036
				c-2.024-1.532-8.99-5.13-11.258-6.285L1239.05,280.144z"/>
			<path fill="#202020" d="M1401.016,435.77c-3.399-8.776,1.076-5.123-7.241-19.725c-1.137-2.017-2.147-3.617-3.052-4.396
				c-1.816-1.56-6.435-3.838-4.38-1.286C1390.767,415.855,1392.373,417.198,1401.016,435.77z"/>
		</g>
		<g>
			<g>
				<path fill="#595959" d="M850.269,131.739c36.695-4.401,70.4,1.56,72.162,1.963c6.325,3.439,13.876,7.877,22.316,7.836
					c27.34,3.016,29.302-2.195,35.132,2.83c0,0,46.335,12.564,68.952,21.312c9.248,3.649,9.866,1.62,35.38-0.421
					c12.039-3.142,22.8,1.52,34.745,6.559c40.053,17.046,40.345,6.17,103.235,62.456c3.31,2.877,4.234,12.493,9.833,15.134
					c1.101-0.033,2.672,1.464,3.968,2.792c2.469,3.945,6.142,5.168,23.16,14.36c33.391,19.043,16.677,9.964,59.342,35.678
					c12.386,7.803,12.43,5.733,21.078,26.189c6.163,14.881,6.583,14.147,20.117,29.835c6.886,8.472,50.473,61.679,59.048,81.383
					c14.206,32.289,39.316,68.162,57.961,109.445c14.975,13.057,19.215,29.247,32.48,55.83c6.817,14.185,11.92,13.961,33.922,62.558
					c-0.451,0.623,4.926-3.603,2.518-1.974c-3.703-4.304-5.482-6.354-6.56-7.598c2.402-1.264-3.57,1.348-2.908,1.277
					c2.883,20.826,4.663,39.475,5.521,55.418c2.594,51.059,13.359,60.977,19.249,81.237c3.582,11.839,4.919,2.693-0.056,46.767
					c4.819,2.055-9.01,1.735-3.807,0.301c-0.22-36.452,0.386-35.398-7.097-53.099c-10.38-24.228-10.611-25.946-11.397-32.633
					c-0.692-5.843-0.829-11.837-4.486-17.307c-1.025-4.575,2.387-14.694,0.278-22.081c-6.024-60.354-7.12-72.492-49.615-129.328
					c-16.286-27.46-22.906-56.498-44.833-80.233c-4.152-6.106-3.764-14.457-6.595-21.455
					c-22.294-51.879-24.102-55.381-75.471-117.955c-17.792-21.446-13.277-12.915-20.931-27.961
					c-14.22-27.992-4.721-17.089-59.498-56.393c-18.273-14.87-39.024-12.495-50.917-27.067c-6.108-7.526-9.45-13.335-14.044-18.847
					c-9.528-11.433-49.86-40.32-58.534-42.034c-10.347-1.508-24.431-7.628-33.875-12.037c-14.083-10.613-28.824-10.617-45.925-9.461
					c-28.809,2.46-29.129,2.658-69.056-10.216c-1-0.296-72.267-24.786-115.474-21.226c-6.626-5.064-14.335-3.551-22.704-2.795
					c-3.99,0.871-7.79-0.653-11.7-1.27c-10.417-2.102-5.479-1.188-6.731-5.955c0.398,1.523-0.918,4.268,0.887,4.789
					c12.237,2.503,14.188,3.219,17.55,2.494c8.499-0.728,15.995-2.257,22.648,2.839c45.835-3.695,115.76,22.39,138.046,28.024
					c22.603,10.693,46.803,0.684,69.891,4.16c15.894,2.485,14.993,6.506,33.36,14.107c27.225,11.341,21.209-0.136,72.6,40.858
					c6.172,4.886,10.768,11.309,15.233,17.808c14.812,21.338,16.473,17.248,37.435,25.598c19.222,7.613,14.38,7.799,54.718,35.509
					c14.978,10.448,11.253,5.826,22.173,26.401c9.953,19.131,4.465,11.203,19.966,29.026
					c53.755,65.135,56.376,69.924,78.684,122.264c2.828,6.675,1.898,14.511,6.97,22.129c19.227,20.752,26.952,47.328,38.916,70.012
					c10.119,19.823,7.578,8.78,37.463,58.866c12.991,23.021,6.514,14.27,11.034,32.73c0.94,5.353,7.668,52.779,6.37,58.13
					c0.108,4.157-3.045,6.897-0.265,12.162c3.883,5.08,3.273,15.167,4.826,21.891c11.147,39.597,17.144,19.632,17.359,79.544
					c0.82,1.458-1.818,0.952,1.841,4.024c3.332,0.005,2.099,0.003,5.436,0.007c3.458-2.827,1.156-2.5,2.019-3.908
					c4.778-41.625,4.495-36.096-1.917-54.078c-24.521-66.815-10.977-48.609-22.338-130.106c0.536-0.52-5.117,2.624-2.597,1.452
					c1.124,1.299,5.718,6.623,6.522,7.593c-2.298,1.786,3.433-2.052,2.736-1.844c-28.927-63.161-14.674-22.558-46.284-89.469
					c-5.031-10.488-10.975-22.016-19.806-29.007c-20.267-45.172-47.412-83.47-55.769-103.592
					c-15.891-38.228-71.48-95.559-77.05-105.61c-16.419-29.63,5.73-21.238-79.268-69.369
					c-26.167-14.759-27.158-13.444-30.317-18.121c-1.471-1.305-2.884-3.331-5.801-3.521c0.059-0.184-1.777-2.44-2.414-3.94
					c-2.224-3.382-2.348-6.93-5.802-10.516c-17.104-15.142-66.811-72.438-185.683-72.175c-26.551-8.58-57.457-16.783-57.457-16.783
					c-5.755-4.881-11.366-1.027-23.603-1.813c-2.034-0.112-15.428-1.126-17.949-1.709c-6.076-1.439-9.78-3.587-16.208-7.008
					C919.448,132.686,886.16,127.254,850.269,131.739z"/>
			</g>
			<path fill="#595959" d="M867.832,129.243c22.08,0.121,19.615,10.19,39.49,3.744C920.945,135.252,931.527,129.531,867.832,129.243
				z"/>
			<path fill="#595959" d="M993.116,142.801c-6.283,4.908-10.581,2.227-18.16,3.54c-11.035,0.585-11.389-0.019-4.843,1.661
				c12.436,3.268,6.089,2.977,19.748,6.057c11.619,2.864,19.381,6.261,5.924-5.198L993.116,142.801z"/>
			<path fill="#595959" d="M1128.289,174.822c-8.968,0.604-11.827-1.991-15.606-2.431c-5.874-0.558-8.83,2.363-16.637-3.829
				c-1.343-2.498-0.862-1.613-2.255-4.155C1116.1,170,1119.301,171.476,1128.289,174.822z"/>
			<path fill="#595959" d="M1086.77,172.148c-2.046-0.288-6.834,0.881-15.922,2.59c-7.146,1.368-4.062,0.943-13.357,1.775
				C1056.808,172.74,1073.632,170.347,1086.77,172.148z"/>
			<path fill="#595959" d="M1350.149,357.33c1.216,1.254,17.752,21.035,26.403,32.088c3.528,4.746,4.028,5.111,8.703,15.481
				l4.816,5.831C1390.343,406.821,1370.742,372.512,1350.149,357.33z"/>
			<path fill="#595959" d="M1539.403,732.492c1.659-12.525,1.478-7.71,0.788-21.118l-1.396,2.275
				c-1.7-24.862,2.286-8.361-1.983-34.603l0.387-7.259l1.666-0.763C1543.984,708.553,1544.417,715.86,1539.403,732.492z"/>
			<path fill="#595959" d="M1489.823,590.681c1.583,3.128,0.874,1.68,3.255,6.685c-3.441-4.388-2.225-2.869-5.691-7.095
				l-0.937-3.087l3.788,0.552c19.441,29.755-4.103-3.559,36.613,57.735c-8.653-11.992-16.852-22.534-17.931-23.879
				C1499.823,611.089,1500.018,603.424,1489.823,590.681z"/>
			<path fill="#595959" d="M849.335,131.899c-1.555,1.597,2.341,0.717,5.274,1.027c12.575,1.333,4.808,1.18,20.01-3.23
				C868.145,129.979,866.544,129.858,849.335,131.899z"/>
			<path fill="#595959" d="M1332.457,316.276c-1.432,1.563-2.068,3.137-0.207,6.316c1.858,3.178,0.208,2.364,2.849,5.545
				c2.667,3.142,7.144,6.095,8.506,8.895c1.355,2.804,4.74,6.852,4.74,6.852c-0.63-2.079-4.41-14.582-5.499-17.937l-6.863-10.007
				L1332.457,316.276z"/>
			<path fill="#595959" d="M1141.349,190.586c23.11,1.561,18.608,0.905,30.571,6.848l-2.903,4.469l-8.512-2.498
				c-1.854-1.751-1.039-0.999-4.274-3.919C1143,191.087,1142.556,190.933,1141.349,190.586z"/>
			<path fill="#595959" d="M1543.651,777.017c-0.111-1.475-0.229-2.377-0.651-6.073c2.932,2.71,4,3.686,5.35,4.99
				c-0.774-1.867-6.888-15.743-9.98-22.246c-0.129,5.285-0.064,3.453-0.315,8.622
				C1543.616,776.778,1542.92,774.958,1543.651,777.017z"/>
			<path fill="#595959" d="M1228.069,258.124c-9.055-18.445-11.729-18.581-19.453-23.62c0,0.001,17.501,23.667,17.502,23.668
				L1228.069,258.124z"/>
			<path fill="#595959" d="M1022.038,168.768c-3.232-0.413-9.025,1.23-10.188,0.945c-1.167-0.282-8.704-3.299-11-4.11
				c-13.227-5.099-1.165-2.633-43.633-14.611l3.998,0.11c-8.269-3.056-5.38-2.026-13.531-4.813
				c16.78,4.441,38.095,10.956,55.708,17.209c2.476-0.251,1.248-0.144,5.926-0.508l4.798,4.223L1022.038,168.768z"/>
			<path fill="#595959" d="M1435.512,495.404l1.915,0.061c-2.85-18.446-8.152-24.791-9.284-26.511l-3.46-2.311
				C1424.845,467.075,1435.344,494.924,1435.512,495.404z"/>
			<path fill="#595959" d="M1525.235,654.422l3.263,4.617c4.263,18.657,5.108,62.826,1.631,33.136
				C1528.078,673.147,1525.668,668.618,1525.235,654.422z"/>
			<path fill="#595959" d="M1556.563,835.461l2.848-5.058c0.098-1.816,0.077-1.038,0.327-9.689l-3.449,2.982
				C1556.512,829.563,1556.456,827.116,1556.563,835.461z"/>
			<path fill="#595959" d="M1126.94,187.496c-3.246-7.278-8.685-7.164-18.519-9.994c6.608,3.803,7.378,4.518,11.493,8.137
				C1126.502,187.349,1125.618,187.119,1126.94,187.496z"/>
			<path fill="#595959" d="M883.115,140.649c-8.284-6.176-20.496,1.537-30.92-2.729l-3.134,0.21
				C878.396,144.762,857.703,138.284,883.115,140.649z"/>
		</g>
		<g>
			<path fill="#595959" d="M951.473,138.701c-17.813-11.462-63.699-70.415-80.535-91.775c13.668,22.45,50.462,81.74,70.796,95.523"
				/>
			<path fill="#595959" d="M1563.669,823.908c5.17-28.087,42.795-78.279,44.505-99.675c-3.415,19.31-45.078,63.73-50.498,92.049"/>
			<path fill="#595959" d="M1528.074,683.579c-16.224-33.08-67.095-54.041-77.54-67.987c12.862,13.606,65.062,27.307,81.161,58.587"
				/>
			<path fill="#595959" d="M1458.131,497.639c-20.457-8.043-56.51,3.062-68.594,0.266c13.057,1.392,47.895-13.234,67.469-6.133"/>
			<path fill="#595959" d="M1298.625,303.266c-19.522-7.614-54.991-3.901-75.65,1.408c18.792-8.519,48.934-15.744,68.885-8.935"/>
			<path fill="#595959" d="M1474.5,562.65c-10.796-2.64-29.594-14.724-38.809-20.903c8.354,8.763,25.94,27.206,37.613,30.513"/>
			<path fill="#595959" d="M1262.16,268.435c-9.206-22.514-16.606-63.176-19.747-86.382c-1.384,21.109,1.456,54.921,10.92,76.541"/>
			<path fill="#595959" d="M1478.085,546.354c-1.973-29.121,39.491-91.364,35.877-123.488
				c7.119,32.928-29.644,101.146-27.028,128.59"/>
			<path fill="#595959" d="M899.312,141.025c-6.313,13.187-30.555,34.65-41.845,43.955c12.803-7.397,36.685-23.582,43.242-36.882"/>
			<path fill="#595959" d="M1120.019,178.128c-8.235,11.311-33.509,26.597-81.312,55.996c25.166-12.209,76.135-36.59,86.504-50.074"
				/>
			<path fill="#595959" d="M1548.866,790.292c7.045-3.097,5.555-4.119,3.03-15.839c-1.756-7.035-3.776-13.315-6.055-19.179
				C1552.64,786.751,1552.199,780.307,1548.866,790.292z"/>
			<path fill="#595959" d="M891.762,135.442c2.931-0.848,9.872,2.56,8.34,8.146C897.64,141.858,896.875,141.728,891.762,135.442z"/>
			<path fill="#595959" d="M1483.518,573.56c-0.605-1.171-9.326-15.652-18.128-47.36c2.72,4.423,1.185,1.838,6.717,11.344
				C1489.06,547.019,1488.491,547.187,1483.518,573.56z"/>
			<path fill="#595959" d="M950.587,141.878c-11.849-3.329-9.763-2.906-30.893-4.731c14.823,4.247,12.493,3.427,23.706,7.669
				l2.006,2.91C952.633,146.967,957.29,140.474,950.587,141.878z"/>
			<path fill="#595959" d="M1278.683,286.555c10.589,12.735,23.754,17.837,29.085,20.256c-10.851-9.436-19.657-16.757-24.187-20.331
				L1278.683,286.555z"/>
			<path fill="#595959" d="M1248.941,265.874c10.149,9.028,5.451,12.915,12.423,16.864c3.301,1.873-6.113-1.235-8.761-3.166
				c-2.08-1.572-9.201-5.279-11.525-6.473L1248.941,265.874z"/>
			<path fill="#595959" d="M1410.643,441.448c-2.455-6.497-0.712-7.791-3.348-12.878c-2.743-5.008-4.878-9.931-6.659-11.541
				c-2.01-1.804-6.358-3.881-4.35-1.388C1402.927,424.269,1403.198,425.407,1410.643,441.448z"/>
		</g>
	</g>
</g>
</svg>
